<?xml version="1.0" standalone="no"?>
<!DOCTYPE svg PUBLIC "-//W3C//DTD SVG 1.1//EN" "http://www.w3.org/Graphics/SVG/1.1/DTD/svg11.dtd" >
<svg xmlns="http://www.w3.org/2000/svg">
<metadata></metadata>
<defs>
<font id="SortsMillGoudyRegular" horiz-adv-x="696" >
<font-face units-per-em="2048" ascent="1591" descent="-457" />
<missing-glyph horiz-adv-x="436" />
<glyph horiz-adv-x="0" />
<glyph horiz-adv-x="2048" />
<glyph unicode="&#xd;" horiz-adv-x="682" />
<glyph unicode=" "  horiz-adv-x="436" />
<glyph unicode="&#x09;" horiz-adv-x="436" />
<glyph unicode="&#xa0;" horiz-adv-x="436" />
<glyph unicode="!" horiz-adv-x="565" d="M139 128q0 15 34 44t51 52q38 48 67 48q14 0 33 -21l14 -15q31 -34 61.5 -56t38.5 -31.5t8 -23.5t-13 -28.5t-35.5 -30t-29.5 -22.5t-21.5 -27.5t-28 -32t-25.5 -11.5t-41 23.5t-40 39t-29.5 31t-31 31t-12.5 30.5zM201 1333q0 78 100 78q49 0 71.5 -14.5t22.5 -50.5 q0 -10 -4 -36t-9 -70t-21.5 -305t-47.5 -505q-4 -23 -28.5 -22.5t-24.5 18.5q-32 378 -36 490l-2 60q-1 30 -11 175t-10 182z" />
<glyph unicode="&#x22;" horiz-adv-x="940" d="M115 1322.5q0 18.5 55 74.5q4 4 22 25q30 38 60 38q19 0 47.5 -25.5t46.5 -50.5q43 -56 43 -147.5t-28.5 -165.5t-67.5 -113q-82 -84 -125 -84q-10 0 -18.5 9.5t-8.5 18.5t17.5 24.5t40 33t40 56.5t17.5 93t-22.5 92t-48 52.5t-48 32.5t-22.5 36.5zM514 1322.5 q0 18.5 55 74.5q4 4 21 25q31 38 53 38t52 -20.5t63 -76.5t33 -137t-29 -155t-69 -113q-85 -84 -126 -84q-10 0 -18 10q-16 18 11 42l38 34q20 18 38.5 56.5t18.5 92.5t-22.5 92t-48 52.5t-48 32.5t-22.5 36.5z" />
<glyph unicode="#" horiz-adv-x="1091" d="M121 285v6q0 25 4 34t25 9h167q6 0 7 4q4 36 14 106l17 118q7 48 7 52q0 10 -14 11h-194q-18 0 -25.5 7t-7.5 43t33 36h208q18 0 19 14q29 205 40 294t17 98t44 9t38 -24l-53 -381q0 -10 12 -10h201q16 0 18 14q53 385 59.5 393t42.5 8t36 -20l-52 -385q0 -10 11 -10h141 q37 0 37 -43.5t-31 -42.5h-166q-6 0 -10 -13q-37 -264 -37 -271t14 -7h195q23 0 29 -11.5t6 -29.5q0 -45 -35 -45h-201q-18 0 -22 -21l-24 -177q-19 -138 -27 -161.5t-45 -23.5t-37 26l47 345q0 12 -15 12h-135q-72 0 -77 -5t-7 -12q-45 -340 -52 -353t-44 -13t-37 26 l47 342q0 14 -16 15h-143q-29 0 -29 37zM412 340q0 -6 16 -6h195q18 0 20 14q5 52 13 100l12 74q12 78 12 92q0 10 -12 11h-201q-14 0 -18 -15q-37 -264 -37 -270z" />
<glyph unicode="$" horiz-adv-x="1091" d="M131 179.5q0 29.5 3 57t14.5 65.5t30.5 38t30 -13.5t33 -59.5l32 -66q33 -59 100.5 -102.5t125.5 -43.5q20 0 20 31l6 578q0 29 -97 59.5t-174 106t-77 221t100.5 248t237.5 120.5q14 2 20.5 10.5t6.5 36.5l-2 56q0 47 45 47q31 0 38 -8.5t7 -28.5v-46l-2 -46 q0 -18 10 -19q171 -21 259 -117q38 -41 38 -66.5t-21.5 -75.5t-40 -50t-26.5 23q-35 76 -94.5 138t-114.5 62q-18 0 -18 -39q0 -172 -5.5 -266t-5.5 -131t4 -47t23 -14q184 -51 273 -149.5t89 -262.5q0 -102 -33.5 -184t-91.5 -132q-108 -93 -233 -124q-38 -10 -40.5 -16.5 t-2.5 -22.5v-168q0 -55 -9 -70.5t-36 -15.5q-43 0 -43 43l6 201q0 39 -12 38q-96 0 -200.5 46.5t-149.5 101.5q-23 27 -23 56.5zM299 1104q0 -172 215 -227h4q18 0 19 34l2 402q0 25 -23 24q-55 0 -136 -62t-81 -171zM600 82q0 -27 12 -27t35 4t65 24.5t76.5 52.5t61.5 95.5 t27 137t-26 125t-61.5 80t-74.5 48.5q-67 33 -92 33q-14 0 -15 -28z" />
<glyph unicode="%" horiz-adv-x="1579" d="M121 705q0 166 117.5 321.5t289.5 155.5q66 0 116 -36l95 -71q45 -35 90.5 -35t92.5 18q91 33 170 96q48 38 72 58l104 95q16 16 35.5 16t19.5 -17t-16 -44l-892 -1358q-52 -83 -63.5 -86.5t-28 -3.5t-38 16t-21.5 37t61 108l359 517l218 307l153 209q43 60 43 66.5 t-5 6.5t-43 -23q-114 -67 -210 -67q-40 0 -69.5 10.5t-31.5 10.5t0 -15t2 -79q0 -150 -107.5 -309t-287.5 -158q-72 0 -148.5 66.5t-76.5 187.5zM268 761q0 -129 33 -192t90 -63q98 0 157.5 135t59.5 293q0 82 -26.5 135t-69.5 53q-115 0 -179.5 -116t-64.5 -245zM791 131 q0 174 112.5 321.5t292.5 147.5q111 0 166 -69.5t55 -182.5q0 -178 -112.5 -343t-266.5 -165q-121 0 -184 83t-63 208zM936 167q0 -130 32.5 -195.5t90.5 -65.5q92 0 157.5 139t65.5 293q0 82 -29.5 140.5t-72.5 58.5q-115 0 -179.5 -120t-64.5 -250z" />
<glyph unicode="&#x26;" horiz-adv-x="1939" d="M121 496q0 70 23.5 144.5t65.5 126.5t104.5 85t100.5 41t38 13t-25 35t-49.5 90.5t-24.5 137.5q0 135 119 204t266 69q72 0 135.5 -23.5t71.5 -23.5l45 6q33 0 33 -47l8 -140q0 -59 -3 -71.5t-17 -12.5t-45 37l-66 81q-35 44 -93 81t-137 37t-126 -50t-47 -104.5t56 -135 t114 -142.5l166 -168q154 -154 297 -276.5t158 -122.5t27 17q30 40 30 135.5t-21.5 141.5t-38 57t-44 24.5t-49.5 15.5t-32 7t-10 20t9 19t42 5l305 -4q39 0 39 -27q0 -22 -38 -32q-15 -5 -28.5 -25.5t-15.5 -51t-5 -61.5q-13 -130 -34.5 -182.5t-37 -83.5t-15.5 -37 q0 -18 122 -95t247 -138q41 -20 88 -21l74 6q27 0 26 -18q0 -33 -58.5 -55.5t-161.5 -22.5t-211.5 52.5t-166 103.5t-62.5 51t-28.5 -21.5t-62.5 -53.5t-94 -63q-132 -75 -351 -75q-146 0 -262.5 42t-185 97.5t-116.5 160t-48 241.5zM256 553.5q0 -136.5 136 -290.5 q67 -75 185.5 -123t236.5 -48t203 30t128 59.5t43 39.5t-53.5 50t-176 144.5t-249.5 231.5l-167 166q-10 10 -19 20.5t-15 14.5t-11 8q-8 6 -18 6q-68 0 -145.5 -86t-77.5 -222.5z" />
<glyph unicode="'" horiz-adv-x="540" d="M115 1322.5q0 18.5 55 74.5q4 4 22 25q30 38 60 38q19 0 47.5 -25.5t46.5 -50.5q43 -56 43 -147.5t-28.5 -165.5t-67.5 -113q-82 -84 -125 -84q-10 0 -18.5 9.5t-8.5 18.5t17.5 24.5t40 33t40 56.5t17.5 93t-22.5 92t-48 52.5t-48 32.5t-22.5 36.5z" />
<glyph unicode="(" horiz-adv-x="667" d="M150 579q0 172 43 342.5t104 285t128 202.5t115 130t64 42q43 0 43 -43q0 -12 -42 -53t-101.5 -113t-118.5 -172t-101 -267t-42 -357.5t41 -351.5t99 -264t117.5 -180t100.5 -122t41 -60t-14.5 -25.5t-32 -10.5t-67.5 49t-114.5 143t-124 213t-99 279.5t-39.5 332.5z" />
<glyph unicode=")" horiz-adv-x="667" d="M20 -393q0 12 42 53t101.5 111.5t119 171t101.5 267.5t42 357t-41 351t-99.5 264.5t-117.5 180.5t-100 122t-41 60t14 25.5t32 10.5t67.5 -49t114 -143.5t124 -213t99.5 -279.5t40 -333t-43 -342t-104.5 -284.5t-128 -202.5t-114.5 -130t-65 -42q-43 0 -43 45z" />
<glyph unicode="*" horiz-adv-x="882" d="M121 784q0 27 110.5 76t110.5 56t-110.5 58.5t-110.5 76.5q0 18 19.5 44.5t41.5 26.5t102.5 -54t89.5 -54t9 39l-6 161q0 27 10 35t51 8t54.5 -12t13.5 -61l-8 -133q0 -37 10 -37t93 55t101.5 55t40 -25.5t21.5 -45.5q0 -25 -111.5 -76t-111.5 -60t111.5 -58.5 t111.5 -74.5q0 -20 -20.5 -45.5t-44 -25.5t-103.5 54t-88 54t-8 -39l6 -118q0 -59 -11.5 -72.5t-64.5 -13.5t-53 49l6 147q0 47 -9 47t-92 -54t-103 -54t-39 26.5t-19 44.5z" />
<glyph unicode="+" horiz-adv-x="1079" d="M63 430.5q0 19.5 1 27.5q4 17 36 17h349q45 0 45 39v360q0 28 17 30q7 1 25.5 1t26.5 -1q23 -3 23 -40v-334q0 -55 35 -55h362q30 0 32 -17q1 -7 1 -31t-6 -33t-37 -9h-352q-25 0 -30 -8t-5 -29v-358q0 -23 -10.5 -29t-37 -6t-35.5 5t-9 32v356q0 25 -9.5 31t-40.5 6 h-346q-29 0 -34 19q-1 7 -1 26.5z" />
<glyph unicode="," horiz-adv-x="512" d="M111 109q0 12 6 22t13 17.5t21.5 20.5t21.5 20t17.5 21.5t18.5 23.5q21 22 41 22t51 -24.5t65.5 -88t34.5 -143.5q0 -129 -91 -234.5t-146 -105.5q-31 0 -31 27q0 20 63 71q25 19 44.5 57t19.5 83t-18.5 76.5t-33.5 45t-52.5 40t-41 32t-3.5 17.5z" />
<glyph unicode="-" d="M90 297v22q0 59 19.5 76t113 44.5t177 57t113.5 41t48 11.5q45 0 45 -70v-12q0 -45 -21 -63q-14 -13 -45 -21q-70 -18 -130 -37.5t-116 -39.5l-82 -30q-57 -22 -89.5 -22t-32.5 43z" />
<glyph unicode="." horiz-adv-x="516" d="M111 112.5q0 24.5 63 80.5q8 8 23.5 28.5t31 31.5t31.5 11t84 -80q6 -6 24 -22q38 -34 38 -46q0 -18 -42 -52l-30 -25q-8 -8 -24 -29q-32 -43 -52 -43t-49 36t-35 40q-63 45 -63 69.5z" />
<glyph unicode="/" horiz-adv-x="851" d="M41 -348q0 4 39 117q625 1686 631 1704t17 25t47 7t36 -24q0 -16 -29 -90l-622 -1702q-16 -45 -27.5 -54.5t-51.5 -9.5t-40 27z" />
<glyph unicode="0" horiz-adv-x="1083" d="M80 442.5q0 198.5 137 315t325.5 116.5t325 -115.5t136.5 -336.5q0 -184 -119 -318.5t-340 -134.5t-343 137.5t-122 336zM195 425q0 -167 108.5 -256t249.5 -89t241.5 98t100.5 255t-109.5 247t-252 90t-240.5 -89t-98 -256z" />
<glyph unicode="1" d="M41 25q0 32 92 38.5t105 71.5q18 111 18 211v164l2 104q0 127 -27.5 156t-136.5 35q-37 0 -37 31q0 23 43 22q4 0 59.5 -6t158 -6t161 5t78 5t31.5 -10t12 -21.5t-7 -18.5t-15.5 -9t-23.5 -3t-23.5 -3t-33 -5.5t-31.5 -5.5t-22.5 -13t-19.5 -31q-14 -68 -14 -140l-7 -338 v-47q0 -53 10.5 -88t71 -50.5t115.5 -23.5t55 -31q0 -18 -12 -22t-45 -4l-262 10l-238 -10q-57 0 -57 33z" />
<glyph unicode="2" horiz-adv-x="958" d="M59 16q0 12 11.5 20.5t46.5 23t65 32.5q229 137 336 272.5t107 233.5t-69 151.5t-136 53.5q-121 0 -121 -94q0 -23 16.5 -66t16.5 -55q0 -20 -39 -20.5t-85 23t-46 49.5t16.5 60.5t51 74.5t108.5 66.5t183.5 26.5t186 -57t76.5 -154.5t-80.5 -202t-194.5 -197.5 t-114 -109.5t149.5 -16.5t235.5 27q33 10 69 56t44 46q25 0 25 -22q0 -6 -51.5 -103.5t-57.5 -105.5q-32 -35 -41.5 -36t-33.5 1q-50 4 -339 4l-280 -2q-56 0 -56 20z" />
<glyph unicode="3" horiz-adv-x="827" d="M80 -279q0 66 37 66q8 0 30.5 -26.5t69.5 -52t115 -25.5q121 0 202.5 99t81.5 203.5t-83.5 170t-219.5 65.5q-44 0 -68 -5t-26 -5q-27 0 -26 22q0 17 13 24t28 14q33 15 106 66q172 122 172 269q0 63 -56.5 113.5t-127 50.5t-112.5 -32.5t-54 -32.5q-23 0 -23 20 q0 35 82 89t179 54t178 -44t81 -146q0 -59 -35.5 -119.5t-77.5 -99.5l-78 -70q-36 -31 -36 -39q0 -2 22 -5q80 -11 132 -38q147 -74 147 -232.5t-145.5 -325.5t-325.5 -167t-180 74q0 16 -1 41z" />
<glyph unicode="4" horiz-adv-x="1032" d="M20 32q0 17 17.5 39.5t113.5 126.5l504 558q3 6 17 22l24 26q45 50 66 50t20 -49q0 -3 -6 -143l-13 -296q-7 -156 -7 -200q0 -29 43 -29t73.5 7.5t39.5 16.5q21 23 34 23q27 0 27 -26q0 -23 -15.5 -57.5t-18.5 -42t-7 -18.5t-7 -18.5t-9 -15.5q-10 -16 -25 -16l-113 2 q-18 0 -23 -8.5t-5 -30.5l6 -217l2 -53q0 -39 -33 -50q-53 -14 -91 -14t-38 29q0 8 3 19t5 31q8 78 8 269q0 33 -18 33l-305 -4l-211 2q-41 0 -49.5 8.5t-8.5 25.5zM211 156q0 -25 78 -25h76l161 -2q55 0 73.5 3t18.5 18q6 291 6.5 373.5t-10 82.5t-68 -60.5t-87 -97 t-97.5 -111.5l-110 -123q-41 -48 -41 -58z" />
<glyph unicode="5" horiz-adv-x="700" d="M-96 -260q0 57 24 57q16 0 44 -31q87 -98 199 -98t195 131t83 289q0 96 -26 154.5t-88.5 102.5t-110.5 60.5t-76 19.5q-68 7 -68 44q0 20 8 37q52 113 105 291q14 49 63 49l152 -4h61q78 0 86 6t10 7t6 7t9.5 11t14.5 17.5t14 18.5q14 17 24 17q27 0 26 -23q0 -9 -12 -35 q-31 -66 -47 -110l-11 -30q-9 -23 -42 -23q-326 -2 -332 -21q-31 -72 -31 -92.5t48 -33.5q178 -48 262 -136q27 -29 57.5 -97.5t30.5 -152.5q0 -174 -95 -332q-154 -260 -438 -260q-55 0 -117 35q-12 8 -20 56.5t-8 68.5z" />
<glyph unicode="6" horiz-adv-x="1017" d="M90 522q0 233 132 444.5t319 340.5q76 53 165 83.5t128 30.5t38.5 -26.5t-20.5 -28.5q-90 -12 -153.5 -45t-151.5 -108t-154.5 -187.5t-89 -178t-22.5 -76.5t4 -11t33.5 27.5t88 55t134.5 27.5q178 0 282.5 -120.5t104.5 -319.5t-109.5 -335t-286 -136t-321.5 150 q-121 126 -121 413zM256 503.5q0 -107.5 29.5 -212.5t76.5 -160q92 -106 186.5 -106t170.5 84t76 237q0 120 -76 266q-37 72 -106.5 121t-148.5 49t-167 -63q-14 -12 -19.5 -18.5t-13.5 -48t-8 -149z" />
<glyph unicode="7" horiz-adv-x="1026" d="M47 -358q0 31 382 526.5t382 518t-125 22.5h-160q-256 0 -326 -47q-36 -25 -44 -62q-4 -18 -25.5 -18t-21.5 22.5t17 101t17 109.5q2 29 90 29l400 -8q231 0 267 11t47 16t18 5q23 0 22.5 -20t-67.5 -123l-547 -807q-100 -146 -141 -265q-11 -31 -17 -34.5t-16 -3.5 l-107 4q-45 0 -45 23z" />
<glyph unicode="8" horiz-adv-x="1024" d="M80 349.5q0 99.5 27.5 162.5t67.5 98t80 57.5t67.5 34t27.5 15.5t-35.5 28.5t-78.5 57.5t-79 98.5t-36 142.5q0 158 105.5 260.5t274.5 102.5t265 -93t96 -241q0 -134 -68 -210q-44 -50 -84 -74.5t-40 -30.5t43 -33t94 -62.5t94 -110.5t43 -167q0 -168 -106.5 -299 t-313.5 -131q-162 0 -252 52t-141 147.5t-51 195zM170 369q0 -154 97.5 -252.5t247 -98.5t225 91.5t75.5 211t-141.5 239.5t-208.5 120q-52 0 -108 -25.5t-94 -57.5t-65.5 -91t-27.5 -137zM240 1098.5q0 -110.5 137 -203t196.5 -92.5t136 76.5t76.5 199.5q0 82 -74.5 173 t-190 91t-198.5 -67t-83 -177.5z" />
<glyph unicode="9" horiz-adv-x="995" d="M80 390q0 175 114.5 324.5t307.5 149.5t303 -145.5t110 -350.5t-92 -391t-274 -311q-123 -86 -316 -86q-39 0 -38 35q0 29 53 29q123 0 268 123q78 66 131 155.5t53 128.5q0 4 -3 4t-26.5 -19.5t-76.5 -39t-129 -19.5q-186 0 -285.5 119t-99.5 294zM223 485.5 q0 -147.5 92.5 -281.5t223.5 -134q74 0 141 44q86 56 86 242.5t-97.5 310.5t-217.5 124q-90 0 -159 -79t-69 -226.5z" />
<glyph unicode=":" horiz-adv-x="532" d="M121 107.5q0 21.5 72 85.5q6 6 23 27q34 40 63 40q9 0 19.5 -12t18 -19.5t17.5 -21.5t17 -21.5t25 -23.5q38 -34 38 -46q0 -18 -42 -52l-30 -25q-8 -8 -22 -29q-31 -43 -49.5 -43t-33 14.5t-29.5 34t-26 27.5q-61 43 -61 64.5zM135 694.5q0 16.5 62 69.5q8 8 21 26.5 t26.5 29.5t30 11t73.5 -75q4 -6 20 -20q33 -29 33 -43q0 -24 -19 -40l-22 -18q-22 -19 -38.5 -41.5t-28.5 -33.5t-26.5 -11t-28 13t-24.5 32.5t-18 27t-20.5 18.5t-21.5 18q-19 20 -19 36.5z" />
<glyph unicode=";" horiz-adv-x="536" d="M121 704.5q0 15.5 63 71.5q8 8 20 26q30 44 58 44q16 0 76 -78q6 -6 22 -20q35 -30 35 -45t-6 -24t-13 -15.5t-21.5 -18.5t-21.5 -18t-21.5 -25.5t-28 -31t-27.5 -11.5t-27.5 13.5t-26 34t-39.5 45.5l-21 19q-21 18 -21 33.5zM126 113.5q-1 9.5 7 20.5t29.5 30.5t28 26 t20.5 27.5q26 38 63 38q14 0 45 -29.5t51 -58.5q48 -72 48 -184.5t-94.5 -220t-149.5 -107.5q-6 0 -15 9t-9 22.5t19 32t43 38t43 57.5t19 89t-26.5 85t-85.5 79q-35 36 -36 45.5z" />
<glyph unicode="&#x3c;" horiz-adv-x="1079" d="M84 426.5q0 17.5 1 23.5q2 12 30 23l740 271q98 36 103 36q39 0 39 -51q0 -25 -32 -33l-625 -227q-86 -31 -86 -43q0 -6 86 -37l635 -229q43 -15 10 -60q-12 -16 -37 -16q-6 0 -835 301q-20 8 -24.5 16t-4.5 25.5z" />
<glyph unicode="=" horiz-adv-x="1079" d="M63 229.5q0 19.5 1 26.5q4 20 36 20h883q30 0 32 -17q1 -7 1 -31t-6 -34t-37 -10h-875q-29 0 -34 20q-1 6 -1 25.5zM63 631.5q0 19.5 1 26.5q4 18 36 18h883q30 0 32 -18q1 -7 1 -30.5t-6 -32.5t-37 -9h-875q-29 0 -34 19q-1 7 -1 26.5z" />
<glyph unicode="&#x3e;" horiz-adv-x="1079" d="M84 135q0 18 20 25l637 229q86 31 86 37q0 12 -86 43l-626 227q-31 8 -31 33q0 51 37 51q6 0 104 -36l740 -271q33 -12 32.5 -38t-5.5 -34t-25 -16q-829 -301 -836 -301q-25 0 -36 16.5t-11 34.5z" />
<glyph unicode="?" horiz-adv-x="716" d="M154 1253q0 35 65.5 80t162 45t178 -61.5t81.5 -171.5q0 -68 -45 -154t-98.5 -155.5t-98.5 -159.5t-45 -162l11 -94q0 -20 -17 -21q-31 0 -48 57.5t-17 118t94 273.5t94 283.5t-65.5 112.5t-111.5 42t-83 -25.5t-39 -25.5q-18 0 -18 18zM199 123q0 18 73 82q8 6 24 25 q34 40 49 40q25 0 64 -51l15 -20l20 -17q50 -40 50 -55.5t-11.5 -28t-32 -26t-27.5 -20.5t-22.5 -27.5t-28 -31.5t-24.5 -11q-24 0 -82 67q-6 6 -36.5 31t-30.5 43z" />
<glyph unicode="@" horiz-adv-x="1681" d="M90 586q0 197 66.5 352.5t164 244.5t220.5 147q203 97 407 97q285 0 464 -181t179 -443q0 -223 -140 -381t-327 -158q-66 0 -104.5 25.5t-46.5 56.5t-12.5 56.5t-8.5 25.5t-31.5 -31.5t-64.5 -68.5t-97.5 -69t-140 -32t-127 54.5t-47.5 158t64.5 236.5t177.5 228t232 95 q39 0 91 -9t56 -9q14 0 38.5 41t47.5 41q16 0 16 -23.5t-25 -123.5q-75 -306 -75 -412v-27q0 -121 84 -121q156 0 256 118t100 354.5t-159.5 379t-397.5 142.5q-309 0 -523 -206t-214 -536q0 -291 181 -477t472 -186q129 0 233.5 33.5t158 66.5t55.5 33q23 0 22 -25 q0 -29 -90 -81q-183 -103 -416 -103q-328 0 -533.5 190.5t-205.5 526.5zM582 465q0 -61 35.5 -92t92 -31t112 35t78 68.5t75.5 236t53 213t-45 25t-82 14.5q-100 0 -209.5 -132t-109.5 -337z" />
<glyph unicode="A" horiz-adv-x="1662" d="M41 16q0 29 31 39q66 25 115 110t243 508l354 763q14 31 25.5 39t33 8t28 -8.5t39 -100.5t83.5 -221l227 -535q160 -374 185 -424.5t68 -86t74.5 -38.5t53 -10.5t21.5 -31.5q0 -31 -55 -31l-185 12l-190 -8q-63 0 -80.5 5t-17.5 21.5t16 25.5t34.5 12.5t35 18.5t16.5 51 t-51 175.5t-86 204.5q-18 35 -84 35l-248 -4h-109q-92 0 -115.5 -10.5t-38.5 -43.5t-44 -91t-39 -80l-25 -59q-26 -59 -26 -100.5t23.5 -66t52.5 -28.5q75 -9 75 -39q0 -14 -6 -21.5t-29 -7.5l-170 2l-176 -8h-4q-55 0 -55 24zM555 690q0 -25 18.5 -31t85.5 -6h64l195 2 q79 0 79 30t-100 256t-127 226q-18 0 -116.5 -226t-98.5 -251z" />
<glyph unicode="B" horiz-adv-x="1290" d="M41 1421q0 31 18 31l82 -2l299 2l226 6q186 0 311 -89t125 -253q0 -117 -73 -196q-52 -57 -92 -82t-40 -29t35 -13.5t84 -31t97 -58t83 -109.5t35 -166t-51.5 -193.5t-131 -155.5t-157.5 -76.5t-174.5 -21.5t-231.5 11t-149 11l-176 -8h-29q-43 0 -43 30t23 29l47 2 q42 0 72 73q18 46 22 148.5t4 608.5v348q0 32 -20 75q-42 85 -160 85q-35 -1 -35 24zM412 188q0 -122 197 -122h50q111 0 192 13t143.5 97t62.5 192.5t-37 181.5t-84 109.5t-112 56.5q-89 29 -169 29l-161 3l-29 2q-18 0 -26.5 -5.5t-15.5 -38.5q-9 -44 -9 -288v-140z M424 1116q0 -257 14 -286q7 -15 117 -15h131q129 0 193.5 67.5t64.5 178.5t-107.5 218t-306.5 107q-63 0 -84.5 -37.5t-21.5 -172.5v-60z" />
<glyph unicode="C" horiz-adv-x="1652" d="M90 666q0 221 86 399t265.5 287.5t424.5 109.5q125 0 252 -36.5t203 -74.5l76 -38l43 20q10 0 20 -8t11 -46t8.5 -104.5t13.5 -109.5t6 -51q0 -37 -24 -37q-18 0 -35 29q-198 372 -572 372h-2q-256 0 -419.5 -163.5t-163.5 -428.5q0 -296 152 -504q77 -106 212 -167.5 t316 -61.5q295 0 495 307q8 14 31 15q18 0 18 -26t-7 -63q-18 -97 -26 -130.5t-36 -46.5q-111 -53 -174 -80q-162 -70 -347.5 -70t-329 43t-234.5 112.5t-153 163.5q-110 167 -110 388z" />
<glyph unicode="D" horiz-adv-x="1622" d="M41 1433q0 19 17.5 22t86.5 3h179l399 8q297 0 543 -166q118 -81 192 -211.5t74 -281.5t-19.5 -257t-64.5 -182.5t-90 -124.5t-114.5 -105.5t-186.5 -100.5t-240 -43l-491 10q-72 0 -133.5 -5t-71.5 -5q-49 0 -49 26q0 16 7 23.5t31 13.5q59 15 90 60t31 84l2 555l-2 520 q0 35 -33.5 70.5t-68.5 37.5t-48 4.5t-26.5 14t-13.5 30.5zM403 289q0 -93 21 -137q9 -20 38.5 -27.5t66 -18t85 -23.5t125.5 -13h41q139 0 237.5 40t188.5 126q152 145 152 471q0 164 -64.5 297t-169.5 212q-216 162 -469 162h-81q-100 0 -132 -34q-16 -17 -19 -29 q-13 -52 -13 -111v-86l-4 -393z" />
<glyph unicode="E" horiz-adv-x="1236" d="M41 1432q0 28 53 28h4l56 -4l499 -10l410 8q39 0 39 -47q0 -12 -12.5 -81t-12.5 -108q0 -65 -32 -65t-32 48q0 51 -34 95q-35 45 -86 47q-184 14 -283 15h-53q-106 0 -123.5 -15.5t-23.5 -136t-7 -315.5q0 -102 39 -105h201q123 0 164 8q107 23 121 107q6 35 26 35 t24.5 -6t4.5 -27l-16 -215l6 -125q0 -51 -15 -51q-31 0 -45 49q-29 86 -51 101q-42 28 -186 28h-110l-67 2h-14q-84 0 -84 -39l-4 -295v-82q0 -147 50 -162t88 -16q307 0 443 50q121 45 148 94q27 51 45 51q25 0 25 -35q0 -88 -88 -178t-154 -90q-147 0 -332.5 10t-230.5 10 l-278 -18q-43 0 -43 20v24q0 13 19 16q21 3 69 24q49 25 64.5 96.5t15.5 300.5v254l6 354q0 55 -4 187q-2 59 -51.5 92t-114.5 35q-33 0 -33 37z" />
<glyph unicode="F" horiz-adv-x="1134" d="M41 1427q0 15 16.5 25t36.5 10h56q49 0 158.5 -6t285.5 -6l465 10q35 0 35 -49q0 -22 -12.5 -94t-16.5 -114t-32 -42t-27 41q0 135 -95 141q-309 25 -384.5 25t-97 -22.5t-23.5 -91.5q-1 -11 -3.5 -69.5t-3.5 -289.5q0 -100 37 -102l51 -2l88 2h64q123 0 163 7t65 24 t35.5 33.5t15 39.5t10.5 33t24.5 10t22.5 -6t4.5 -23.5t-9 -75t-9.5 -98.5l14 -168q0 -33 -7 -42t-22 -9q-35 0 -43 51q0 47 -11 63q-20 30 -41.5 39t-95 17t-96.5 8h-178q-84 0 -84 -39l-4 -295l-2 -81q0 -41 8.5 -82t48 -86t104 -45t64.5 -37q0 -19 -19 -29t-44 -10 l-199 16l-248 -12q-41 0 -40 22q0 27 9 33t79 31q53 18 65 110q14 106 14 539l7 356v119q0 135 -97 180q-30 13 -66 13t-36 28z" />
<glyph unicode="G" horiz-adv-x="1675" d="M90 674q0 223 89 401t273.5 288t438.5 110q244 0 422 -93q41 -22 62.5 -37.5t26.5 -15.5t26.5 15.5t29.5 15.5q31 0 32 -50t8 -116t13.5 -109t6.5 -51q0 -35 -25 -35t-35 25q-72 156 -239.5 263.5t-346.5 107.5q-256 0 -422.5 -161t-166.5 -446q0 -188 69.5 -354 t212 -274.5t313.5 -108.5t299 72t142 164q6 49 6 258q0 80 -30 109.5t-93.5 36.5t-72.5 25q-5 8 -5 21q0 23 37 23l228 -10l164 2h30q33 0 33 -19q0 -14 -52.5 -36.5t-58.5 -57.5q-14 -88 -14 -189t2 -148.5t3 -67t3 -34t2 -22.5t-15.5 -13t-49.5 -15q-42 -11 -78 -34 l-28 -18q-15 -8 -38 -20l-48 -25q-179 -86 -335 -86q-223 0 -388 60.5t-255 164.5q-176 202 -176 484z" />
<glyph unicode="H" horiz-adv-x="1619" d="M41 1432q0 22 52 22h5l232 -8l180 4q45 0 45 -29q0 -35 -72 -35q-41 0 -59 -83.5t-18 -172.5v-75l-5 -189q0 -51 12.5 -65.5t57.5 -14.5l336 2l387 -4q23 0 23 285v111q0 155 -61 188q-26 14 -51.5 18.5t-43 11.5t-17.5 27.5t80 20.5l199 -4l160 4q47 0 47 -26.5 t-29 -26.5q-57 0 -87 -35t-30 -92l-10 -805v-76l8 -188q0 -133 172 -152q25 0 25 -22q0 -14 -20.5 -18.5t-79.5 -4.5l-158 10l-193 -10h-35q-28 0 -33 8t-5 19.5t20.5 21.5t44.5 17q69 18 76 67q14 74 14 150l7 362q0 31 -25 43t-80.5 12t-165.5 -3l-110 -3l-377 6 q-31 0 -41 -12t-10 -64l-9 -251v-88q0 -88 16.5 -131t80.5 -84q16 -10 59 -10q68 -1 68 -23q0 -37 -66 -37l-170 8l-221 -10q-96 0 -96 31q0 26 64 35q24 4 50.5 27.5t34.5 63.5t18.5 216t10.5 336v116l2 221q0 156 -12 244q-6 51 -54.5 80t-84 29t-47 13.5t-11.5 21.5z" />
<glyph unicode="I" horiz-adv-x="671" d="M41 1424q0 30 57 30l232 -8l180 4q55 0 55 -29q0 -16 -94 -55q-65 -27 -65 -230v-6l-7 -757q0 -172 48.5 -241.5t101.5 -70.5l41 -2q14 0 28.5 -7t14.5 -22q0 -30 -51 -30l-195 8l-225 -10q-92 0 -92 31q0 26 64 35q24 4 50.5 27.5t33.5 53t16.5 247.5t9.5 315v116l2 221 v95q0 90 -7 144t-55.5 81t-95.5 28.5t-47 31.5z" />
<glyph unicode="J" horiz-adv-x="593" d="M-92 -315q0 31 23.5 71.5t37.5 40.5t46 -34.5t75 -34.5q113 0 141 159q27 139 27 248v85q0 61 -1 114l-1 53q0 41 -1 71.5t-2 65.5q-3 105 -3 398.5t-7 354t-55.5 85t-97.5 27t-49 37t59 34.5l232 -12l166 2q57 0 57 -27q0 -18 -94 -57q-43 -16 -43 -139v-94l-2 -834 l-2 -158q0 -233 -126 -383.5t-298 -150.5q-82 0 -82 78z" />
<glyph unicode="K" horiz-adv-x="1482" d="M41 1422q0 28 57 28l232 -4l176 4q35 0 35 -27q0 -11 -30 -24t-42 -19q-63 -37 -63 -250l-7 -319q0 -43 16.5 -43t166 122t297 264t147.5 187q0 26 -20.5 34.5t-30.5 12t-28.5 6.5t-22.5 5q-23 4 -23 27.5t33 23.5l51 -2l123 -4l254 6q41 0 41 -27q0 -14 -12.5 -21 t-47 -17.5t-52 -17.5t-107.5 -64q-19 -11 -231 -191l-357 -301l-23 -29q0 -10 23 -32l251 -249q284 -282 367.5 -352.5t151.5 -81t75 -25.5q3 -6 3 -18q0 -14 -18 -18t-101 -4h-199q-34 0 -54 26l-74 84q-31 35 -267.5 274.5t-258.5 258.5t-40 19q-29 0 -29 -56v-6l3 -47 v-104q0 -268 30 -324q39 -66 137 -66l17 -2q14 0 28.5 -7t14.5 -22q0 -30 -51 -30l-195 8l-225 -10q-74 0 -74 22v9q0 14 20 19q73 19 97.5 43t31.5 127.5t7 330.5v274l-4 221v95q0 104 -6.5 151t-52.5 74t-93 28.5t-47 29.5z" />
<glyph unicode="L" horiz-adv-x="1234" d="M41 1423q0 37 55 37l56 -4l178 -8l215 8q35 0 35 -20q0 -29 -25 -38t-54.5 -12.5t-57 -45.5t-31.5 -124t-10.5 -448.5t-6.5 -409.5v-82q0 -147 50 -162t87 -16q308 0 444 50q121 45 148 94q27 51 45 51q25 0 25 -35q0 -88 -88 -178t-154 -90q-147 0 -332.5 10t-230.5 10 l-256 -16q-59 0 -59 24q0 14 11 23.5t31.5 9.5t53.5 25t49.5 101.5t16.5 295.5v254l6 354q0 55 -4 187q-2 59 -51.5 92t-92 34t-48 8t-5.5 21z" />
<glyph unicode="M" horiz-adv-x="1882" d="M41 1423q0 31 37 31l108 -8l154 4q39 0 49 -29l383 -826l77 -159q77 -155 89 -155q20 0 40 51q11 27 28 61l344 711l90 196l21 50q11 26 14.5 35.5t5.5 13.5t7 18.5t10 19.5q17 17 61 17l176 -4q35 0 34 -27q0 -20 -13 -29.5t-59 -15.5t-66.5 -51t-20.5 -246.5t12 -426 t12 -281.5q0 -205 33 -261.5t137 -56.5q14 0 25.5 -10t11.5 -18q0 -33 -23 -33h-22l-209 8l-213 -10q-37 0 -37 28q0 32 55 37q21 2 44.5 25.5t32.5 68t9 122.5v25q0 141 -10 324l-8 164q-4 76 -7 125l-3 50q0 88 -18 88q-7 0 -12 -6.5t-9 -10.5t-8 -13t-8 -15l-11 -18 q-6 -11 -10 -20l-11 -22q-7 -14 -11 -24l-389 -791q-38 -78 -46 -91t-23 -13t-27.5 17t-37 76.5t-221 459.5t-205 411.5t-14.5 11.5q-16 0 -16 -81l-19 -541v-92q0 -94 16.5 -140.5t51.5 -67t68 -23.5q51 -5 51 -26.5t-6.5 -28.5t-24.5 -7l-213 8l-168 -6q-43 0 -43 33 q0 26 60 29q24 1 52.5 33t41 85t27 364.5t14.5 488.5t-40 255t-173 109q-27 5 -27 30z" />
<glyph unicode="N" horiz-adv-x="1634" d="M41 1415q0 12 14.5 23.5t36.5 11.5l78 -2l100 4q18 0 43 -11t29 -24q4 -6 22 -27l50 -57q30 -35 55 -67q279 -362 745 -875q12 -14 30 -32.5t25 -27.5t15 -17q14 -15 23 -15q20 0 20 127v240l-4 419v15q0 187 -67 240q-23 18 -39.5 23t-46.5 11q-85 17 -85 46.5t39 29.5 l195 -2l184 4q35 0 48.5 -7t13.5 -21.5t-11 -21.5q-22 -13 -61 -26q-68 -37 -68 -231v-78l-22 -1014v-41q0 -47 -29 -47q-18 0 -33 15l-812 936q-132 149 -146 149q-20 0 -20.5 -167t-8.5 -391t-8 -245q0 -92 32 -140t68.5 -54.5t68.5 -13.5t32 -28.5t-7.5 -27.5t-25.5 -6 l-219 4l-174 -4q-45 0 -45 33q0 18 26.5 23t65.5 31.5t55 87t34.5 394.5t18.5 485q0 315 -208 338q-27 2 -27 31z" />
<glyph unicode="O" horiz-adv-x="1746" d="M90 694q0 344 207 564.5t586 220.5q176 0 317 -51.5t223 -126t137 -171.5q97 -167 97 -327q0 -279 -109 -471q-207 -365 -694 -365q-244 0 -421 106.5t-260 268.5t-83 352zM270 799q0 -185 96 -374q52 -101 124.5 -182t184 -133.5t245.5 -52.5q151 0 298 88 q164 97 233 267q38 94 38 202q0 371 -194.5 577t-481.5 206q-225 0 -384 -151.5t-159 -446.5z" />
<glyph unicode="P" horiz-adv-x="1155" d="M41 1421q0 33 47 33l76 2l123 -6l338 6q193 0 332 -97t139 -280q0 -100 -37 -179t-89 -124t-117 -74q-107 -49 -188.5 -49t-148.5 15.5t-67 31.5q0 31 26 30q12 0 43 -7.5t70 -7.5t92 13t110.5 43t94.5 90.5t37 139.5q0 137 -111 255t-305 118q-63 0 -86 -38t-23 -171 l-4 -846q0 -235 141 -253q33 -5 56 -4h7q50 0 50 -42q0 -35 -46 -35l-1 1l-293 10l-190 -8q-63 0 -64 22q0 34 23 43q10 4 14 6t19.5 5.5t20.5 5.5t13.5 3t11.5 2t10 6t11 14t11.5 24.5t18.5 47.5t19 300t8 416l-2 348q0 55 -34.5 109.5t-114.5 54.5q-41 -1 -41 26z" />
<glyph unicode="Q" horiz-adv-x="1718" d="M92 697q0 347 193.5 564.5t599.5 217.5q170 0 306 -55.5t215 -136.5t132 -185q90 -175 90 -335t-49 -307t-152.5 -264.5t-242.5 -156.5t-140 -45q0 -23 39 -39q8 -4 59 -27l138 -62q51 -22 78 -32l76 -28q47 -19 78 -28l71 -20q70 -18 129 -18t94 17.5t54.5 33.5t34 16 t21.5 -9t7 -15q0 -72 -110.5 -126t-242.5 -54t-366.5 104.5t-440.5 208.5t-267 104q-94 0 -139.5 -65.5t-45.5 -151.5v-36q0 -53 -37 -54q-20 0 -34.5 27t-14.5 59q0 90 41 170t88 114t47 40t-45 37q-264 190 -264 537zM279 807q0 -287 151 -496q80 -113 228.5 -183.5 t275.5 -70.5t278 78q86 45 171 177t85 302q0 330 -190.5 556.5t-462.5 226.5q-225 0 -380.5 -151.5t-155.5 -438.5z" />
<glyph unicode="R" horiz-adv-x="1470" d="M41 1425q0 33 59 33h340l205 6q184 0 315.5 -93t131.5 -251q0 -104 -40 -183t-88.5 -114t-88 -60.5t-39.5 -33.5q0 -25 172 -265.5t235 -307.5q78 -96 189 -97q29 0 28 -24q0 -31 -24.5 -41t-123.5 -10t-179 47q-102 59 -347 459q-113 192 -172 192h-168 q-25 0 -29.5 -20.5t-4.5 -124.5v-162l2 -110v-17q0 -84 39 -130t87 -53.5t87 -16.5t39 -30q0 -33 -37 -32l-293 14l-225 -8q-43 0 -43 33q0 23 26.5 32t59 13t59.5 45t27 116l2 646l-2 346q0 76 -31 115.5t-69 45t-68.5 13.5t-30.5 28zM412 1098q0 -211 2 -261.5t14 -58.5 q31 -18 88 -18h80q174 0 249 80t75 205.5t-99.5 230t-300.5 104.5q-76 0 -92 -40t-16 -185v-57z" />
<glyph unicode="S" horiz-adv-x="1220" d="M121 390q0 36 28 36t33 -20q75 -183 178 -260q114 -83 269.5 -83t248.5 81t93 212q0 96 -63.5 161t-145.5 93q-304 102 -414 166q-186 111 -186 297t132 296t343 110q78 0 185.5 -34t109.5 -34l47 16q27 0 31 -16q43 -248 43 -291.5t-29 -44.5q-18 0 -36 44 q-37 91 -74 128l-54 49q-111 98 -253 98q-1 0 -2 1q-140 1 -226 -61t-86 -160.5t50 -158t134 -92t176 -61.5q247 -76 367 -203q82 -88 82 -219q0 -215 -137.5 -341t-339.5 -126q-141 0 -227.5 15.5t-176.5 62.5q-27 16 -63.5 159.5t-36.5 179.5z" />
<glyph unicode="T" horiz-adv-x="1439" d="M41 1188q0 82 10 148.5t11 76.5t2.5 13.5t2.5 10.5t3 10t5 8t7 7t10 4q12 4 39 4t167 -8t550 -8t500 12q23 0 30.5 -12t7.5 -22l13 -166q0 -51 -6.5 -64.5t-24.5 -13.5t-25 24q-16 59 -28 81q-30 55 -178 55h-267q-49 0 -60 -19.5t-11 -111.5v-101l-6 -749l-2 -134 q0 -88 27.5 -114.5t60 -39.5t55.5 -15q57 -7 57 -37q0 -23 -10 -29t-39 -6l-227 16l-209 -14q-76 0 -76 33q0 20 12.5 27t48 12.5t46.5 7.5q70 16 77 82q20 180 21 774l-2 366q0 39 -22.5 48.5t-149.5 9.5t-200 -8.5t-85 -15.5t-29.5 -29.5t-29 -52t-14.5 -48.5 q-7 -47 -40 -47q-22 0 -22 35z" />
<glyph unicode="U" horiz-adv-x="1669" d="M41 1427q0 17 12.5 22t34.5 5l231 -8l193 4q43 0 43 -29q0 -18 -14.5 -22t-36 -6t-42.5 -15q-50 -28 -50 -190v-58l-2 -442q0 -203 12 -264.5t28.5 -113.5t40 -82.5t59.5 -67.5t83 -56q112 -47 252 -47q220 0 306 49q38 21 86 65t75 107q63 153 63 386l-2 434 q0 72 -3 112.5t-20.5 90t-44 67.5t-59.5 23.5t-53.5 8.5t-20.5 17q0 33 41 33l158 -4l174 6q43 0 43 -27q0 -16 -44 -41.5t-60.5 -57.5t-16.5 -124l2 -137q0 -393 -32.5 -602t-99 -304.5t-187.5 -146.5t-305 -51q-342 0 -486 131q-113 104 -139.5 250.5t-26.5 505.5v35 l5 295q0 113 -27 154.5t-125 56.5q-45 5 -45 38z" />
<glyph unicode="V" horiz-adv-x="1652" d="M41 1425q0 29 57 29l226 -8l133 4q47 0 57 -4t10 -17.5t-20 -23.5q-64 -31 -64 -74q0 -48 40 -139l247 -553q172 -395 205 -395q10 0 117.5 247.5t212 518t104.5 311.5t-23.5 58.5t-50.5 20.5q-73 8 -73 34q0 14 7 17t36 3l129 -2l182 4q39 0 39 -29q0 -22 -46 -43 q-18 -8 -42.5 -34.5t-42.5 -69.5l-457 -1040l-95 -225q-23 -56 -29.5 -66t-16.5 -10q-37 0 -91 137t-212 479l-142 313l-142 332q-41 90 -70.5 123t-67 49.5t-60.5 15.5h-10q-47 0 -47 37z" />
<glyph unicode="W" horiz-adv-x="2273" d="M41 1425q0 27 55 27l226 -6l176 6q18 0 23 -5t5 -18.5t-44 -36t-44 -61.5q0 -32 42 -129l374 -853q40 -91 53 -91q8 0 65.5 127t84 192.5t37.5 88.5q22 42 22 68t-123 302q-135 301 -173 330q-36 25 -53 25l-24 2q-72 7 -76.5 14.5t-4.5 17.5q0 29 59 29l225 -8l135 8 q61 0 61.5 -14t-22.5 -26q-65 -37 -65 -78.5t63 -184.5q4 -8 28 -67q55 -140 69.5 -140t80.5 179.5t66 214t-31 50t-61.5 22.5t-30.5 24q0 23 45 22l131 -4h35q29 0 109 6h18q27 0 27 -20.5t-39 -32.5t-63 -36t-48 -85l-103 -244q-61 -143 -71 -171.5t-10 -48t125 -298 t148.5 -278.5t237.5 517t214 559t-23.5 59.5t-52.5 20.5q-76 8 -76 34q0 14 6 17t33 3l129 -2l182 4q41 0 41 -29q0 -14 -11 -22t-33.5 -20.5t-36 -25.5t-20.5 -23.5t-15 -25.5q-16 -28 -30 -62l-369 -831q-156 -354 -185 -413t-45 -59q-17 0 -65 111l-189 444 q-51 116 -64 116q-20 0 -138 -282.5t-123 -303t-8 -28.5t-7 -20.5t-6 -16.5t-3 -8t-3 -7t-4 -5t-4.5 -3t-4.5 -2t-6 -1q-18 0 -44.5 58t-96.5 229l-141 329q-119 260 -252 588q-39 98 -84 154.5t-80 70.5t-63.5 16t-45 8t-16.5 33z" />
<glyph unicode="X" horiz-adv-x="1538" d="M41 1438q0 14 14.5 19t71.5 5l182 -8l215 4q45 0 45 -18.5t-14 -26.5t-31 -9q-47 -3 -47 -43t111 -200q167 -253 182.5 -268.5t22.5 -15.5q16 0 47 45l198 285q72 109 72 138t-17.5 44.5t-36.5 17.5q-55 6 -55 35q0 20 31 20l166 -8q115 0 150.5 4t42.5 4 q33 0 32.5 -20.5t-19.5 -27.5l-58 -22q-41 -14 -78 -39.5t-107 -119.5q-317 -426 -317 -430q0 -14 73 -119l185 -264q188 -274 266 -338q6 -6 40 -12q89 -18 89 -43q0 -10 -3 -15q-7 -14 -62 -14l-220 14q-102 0 -151 -6t-57 -6q-27 0 -27 26t52 38t52 51q0 25 -57 117 l-262 389q-20 35 -35 34q-4 0 -46 -67.5t-127 -181t-128 -183t-43 -110.5q0 -55 111 -56q25 0 24 -34q0 -23 -63 -23l-181 6l-164 -8q-38 0 -48.5 10t-10.5 28.5t19 21.5q87 14 117 38q57 45 103 102l46 56q20 25 51 66l95 134q34 48 46 64l134 180q18 25 18 31q0 11 -39 65 l-240 334q-164 242 -278 267q-48 0 -65 14.5t-17 28.5z" />
<glyph unicode="Y" horiz-adv-x="1458" d="M41 1407q0 25 23.5 31t103.5 6l119 -4l174 2q102 0 102 -24t-43 -39t-43 -34q0 -43 40 -105l71 -107q70 -111 144.5 -211.5t85.5 -100.5t29.5 23.5t51.5 79.5q43 71 85 133l60 93q19 30 27 45l19 37q20 35 20 62q0 74 -94 86q-43 6 -50.5 17.5t-7.5 21.5q0 25 58 25 l84 -2l217 -2q100 0 100 -31q0 -8 -12 -14l-35 -17q-22 -10 -41 -24q-84 -66 -246.5 -311.5t-190.5 -280.5t-36 -84t-8 -168l2 -238v-49q0 -68 23.5 -106.5t44 -46t40.5 -7.5l41 -2q14 0 22.5 -9t8.5 -24q0 -28 -49 -28l-205 2l-225 -8q-57 0 -57 20t11 27.5t37.5 9.5 t39.5 6q86 27 86 125l4 416q0 85 -52 168l-270 401q-63 96 -114.5 146.5t-79 59.5t-71.5 9t-44 25z" />
<glyph unicode="Z" horiz-adv-x="1153" d="M41 29q0 10 17 37l59 88q41 61 89 147t208 349l276 456q115 194 115 217t-80 23t-383 -9q-66 -2 -114 -32.5t-68 -66.5l-35 -66q-16 -29 -27 -29q-27 0 -26.5 37t8.5 77.5t8 52t6 68t18.5 64.5t43.5 8l442 -6l369 2q88 0 88 -29t-376 -647t-376 -642t56.5 -31t222.5 -7 t258 11.5t141.5 39t66.5 46t27 28.5t21 10q16 0 16 -29.5t-63 -132.5q-4 -6 -11 -17q-20 -34 -29 -38q-20 -8 -46 -8l-375 -2l-506 -2q-41 0 -41 33z" />
<glyph unicode="[" horiz-adv-x="587" d="M160 -168l12 1335v168l-2 176q0 33 20.5 42.5t79.5 9.5h88l120 2h16q14 0 23 -13.5t9 -29.5q0 -41 -24 -41l-189 -2h-32q-16 0 -17 -17l4 -317l-10 -1114q0 -199 1 -277.5t26 -79.5l184 2q29 0 39 -9t10 -39t-21.5 -38t-84.5 -8h-185q-45 0 -56 20.5t-11 104.5v125z" />
<glyph unicode="\" horiz-adv-x="851" d="M41 1481q0 25 36 24.5t47 -7.5t19 -30l662 -1786q6 -16 6 -24q0 -33 -68 -33q-16 0 -25 11.5t-26 52.5l-622 1702q-29 74 -29 90z" />
<glyph unicode="]" horiz-adv-x="587" d="M59 -377q0 43 27 43h221q14 0 15 19l-3 161v156l9 1114q0 197 -1 275.5t-26 78.5h-184q-29 0 -39 8.5t-10 34.5q0 47 34 48q205 4 253 4t59.5 -20.5t11.5 -104.5v-125l-10 -1335l2 -290v-55q0 -33 -20.5 -43t-80.5 -10h-223q-14 0 -24.5 12.5t-10.5 28.5z" />
<glyph unicode="^" horiz-adv-x="681" d="M59 678q0 10 27 51l74 125q86 145 112.5 179t60.5 34t59.5 -34t108.5 -174l77 -130q23 -33 22.5 -52t-37.5 -20h-31q-21 0 -29.5 12.5t-12.5 18.5q-12 15 -19 37q-29 53 -45 85t-27.5 51.5t-17.5 31.5t-13.5 24.5t-12.5 18.5t-9 12t-7 8t-7 2q-10 0 -21 -17l-13 -21 q-6 -12 -18 -32l-87 -163q-2 -4 -8.5 -15.5t-8.5 -15.5t-8 -13t-11 -12q-17 -10 -28 -10h-29q-41 1 -41 19z" />
<glyph unicode="_" horiz-adv-x="436" d="M0 -84.5q0 22.5 2 30.5q5 19 37 19h364q30 0 32 -17q1 -7 1 -31t-6 -34t-37 -10h-356q-25 0 -31 10t-6 32.5z" />
<glyph unicode="`" horiz-adv-x="899" d="M223 1303q0 27 43 40t67 13t46.5 -54.5t49.5 -111.5t45 -86l48 -80q6 -10 6 -18q0 -23 -22 -23t-82 64q-201 211 -201 256z" />
<glyph unicode="a" horiz-adv-x="944" d="M98 165q0 83 31 133t93 78q102 44 295 76q34 5 50 8t21 5q16 6 16 29l4 106q0 117 -67.5 169t-130.5 52q-147 0 -148 -123l8 -73q0 -41 -37 -41q-29 0 -62 10q-65 19 -65 70q0 80 108 152.5t216.5 72.5t170 -20.5t91 -46t46.5 -67.5q20 -52 20 -161.5t-5 -195t-5 -155 t16 -113.5t38.5 -56.5t45.5 -14.5q55 -5 55 -32q0 -43 -129 -43q-53 0 -91 28.5t-54.5 56t-18.5 27.5t-16 -13t-40 -31.5t-58 -37.5q-77 -45 -156 -45q-131 0 -190 62q-52 51 -52 134zM258 198.5q0 -63.5 41 -105.5t105.5 -42t102.5 16.5t56.5 37t28.5 54.5q12 41 12 101 v148q0 18 -14 18l-80 -14q-81 -14 -109 -26.5t-60 -30t-45 -37.5q-38 -56 -38 -119.5z" />
<glyph unicode="b" horiz-adv-x="1120" d="M25 1412.5q0 20.5 20.5 35t65.5 30t53 18.5t40 18q69 34 82 34t23 -10t10 -27v-41l-2 -250v-378q0 -74 15 -74q8 0 24.5 21.5t40 47t91 47t167.5 21.5q182 0 283.5 -127t101.5 -297q0 -96 -50 -222t-136 -191q-119 -90 -285 -91q-84 0 -155.5 30t-107.5 59.5t-38 29.5 q-8 0 -39.5 -65.5t-58.5 -65.5t-27 27l9 168q0 68 9 241.5t9 298.5v506q0 186 -92 187h-21q-32 -1 -32 19.5zM317 270q0 -55 81 -137t220 -82t214 95.5t75 245t-97 276.5t-263 127q-96 0 -163 -55.5t-67 -98.5v-371z" />
<glyph unicode="c" horiz-adv-x="925" d="M80 390q0 200 132 344.5t343 144.5q72 0 155 -20.5t85 -47.5q4 -49 4 -117.5t-23 -68.5q-20 0 -36.5 27.5t-30.5 37.5q-45 39 -122 74t-151 35q-40 0 -79.5 -31t-64.5 -66q-59 -87 -59 -245t101.5 -276t249.5 -118q72 0 133 27t95 53.5t42 26.5q23 0 23 -20 q0 -22 -43 -63.5t-84 -66.5q-100 -63 -246 -63q-193 0 -308.5 116.5t-115.5 316.5z" />
<glyph unicode="d" horiz-adv-x="1157" d="M80 410.5q0 187.5 132 337t366 149.5q53 0 140 -29.5t95 -29.5t8 73l4 265q0 111 -11 155.5t-34.5 59t-62.5 14.5h-23q-31 0 -37 2t-6 14v2q0 14 20.5 21.5t83 27t98.5 36t55 25.5q39 19 55 19q25 0 24 -41q0 -6 -13 -174t-13 -270l-5 -748q0 -139 13.5 -186t58.5 -61 q6 -2 35 -7.5t41 -12.5t12 -23q0 -25 -158 -37q-33 -2 -75.5 -11.5t-53.5 -9.5q-23 0 -22 23l-6 76q0 35 -19 34q-6 0 -30 -20l-54 -46q-30 -26 -88.5 -46.5t-126.5 -20.5q-190 0 -296.5 126t-106.5 313.5zM227 491.5q0 -151.5 95.5 -282.5t244.5 -131q92 0 168 47t76 115 v114l2 140v96q0 125 -57 158q-152 90 -244 90q-133 0 -209 -97.5t-76 -249z" />
<glyph unicode="e" horiz-adv-x="954" d="M80 392q0 210 115.5 351.5t300.5 141.5q86 0 156.5 -31t109.5 -75t66 -93q44 -82 44 -127q0 -37 -84 -37h-526q-16 0 -19 -3t-3 -19q0 -193 103 -303.5t243 -110.5q86 0 175 46t93 46q20 0 20 -18q0 -25 -45 -67t-86 -69q-98 -63 -231 -63q-180 0 -306 110.5t-126 320.5z M252 600q0 -29 27 -29l360 13q29 0 36 5t7 19q0 61 -57.5 143.5t-159.5 82.5t-157.5 -81t-55.5 -153z" />
<glyph unicode="f" horiz-adv-x="706" d="M59 788q0 37 17.5 49.5t68.5 12.5h43q25 0 31 11t6 36q0 150 49.5 275.5t121.5 200.5q152 157 280 157q47 0 76.5 -15.5t29.5 -32.5t-7 -45l-9 -36q-11 -46 -32 -50q-5 -1 -12 -1t-18 13q-32 40 -109.5 40t-122 -43t-66.5 -116q-44 -141 -44 -306v-51q0 -39 25 -39 q181 0 221 28q13 9 21 9t8 -22t-29 -72q-12 -18 -51 -19l-160 -2q-33 0 -32 -20v-119l10 -406q0 -110 29 -144q35 -42 100 -42q35 0 35 -31q0 -20 -23 -20l-205 10l-151 -10q-31 0 -31 28q0 10 25 20q75 31 75 122q0 14 -2 80q-6 200 -6 497q0 23 -7 28t-28 5l-82 -6 q-45 -1 -45 26z" />
<glyph unicode="g" horiz-adv-x="999" d="M80 -213.5q0 69.5 37 107.5t73.5 56.5t36.5 23.5t-10 13.5t-23 18.5q-34 25 -34 88t26.5 108.5t53 68t26.5 29.5t-22 26l-48 42q-26 23 -47.5 77.5t-21.5 114.5t15.5 108.5t51 100.5t110.5 85t166 33t148.5 -20.5t85 -41t39.5 -20.5t101 37q29 12 43 55t31 43 q27 0 26 -16q0 -49 -14.5 -105.5t-35 -88.5t-79.5 -56q23 -61 23 -103q0 -131 -98.5 -221t-239.5 -90q-53 0 -101.5 9.5t-57.5 9.5t-25.5 -4.5t-41 -29t-24.5 -67.5q0 -70 63.5 -88t210.5 -18h94q297 0 297 -181q0 -63 -14 -96q-39 -100 -159.5 -159.5t-280.5 -59.5 q-209 0 -317 88q-64 53 -64 122.5zM199 -186q0 -90 75.5 -136.5t194.5 -46.5t220.5 52.5t101.5 134.5q0 74 -72 91q-56 13 -156 13h-18q-66 0 -159 15l-93 14q-20 0 -57 -41t-37 -96zM283 592q0 -121 58 -203t148 -82t139.5 71t49.5 179.5t-57.5 196.5t-144.5 88t-140 -64.5 t-53 -185.5z" />
<glyph unicode="h" horiz-adv-x="1202" d="M41 1425q0 18 21.5 29.5t61.5 22t113.5 43t92.5 32.5q27 0 26 -47q0 -10 -7 -49t-8 -150.5t-4 -239.5t-5 -172q-4 -88 -4 -122.5t16 -34.5q4 0 42 38t104.5 76t142.5 38q166 0 258 -98.5t92 -305.5v-297q0 -55 20.5 -85.5t47.5 -32.5q111 -10 111 -43t-64 -33l-172 10 l-158 -6q-47 0 -47 20q0 37 55 37q21 0 38 22.5t17 69.5l3 55l2 285q0 125 -76 216.5t-175 91.5t-202 -80q-37 -29 -47 -93.5t-10 -285.5v-47q0 -92 15 -149q22 -81 111 -87q29 -2 44.5 -7t15.5 -21q0 -25 -23 -25l-106 5q-106 5 -113 5l-145 -10q-51 0 -53 6t-2 14 q0 20 24 27q59 16 76.5 52t17.5 106l9 698v101q0 279 -12.5 340t-73.5 61q-19 0 -44.5 1t-25.5 19z" />
<glyph unicode="i" horiz-adv-x="581" d="M74 779q0 11 5 17.5t20.5 13.5t31.5 12q50 16 109 40l42 18q19 9 25 12q14 7 35 7q31 0 31 -39l-13 -98v-561q0 -61 19.5 -96t41 -43.5t50.5 -10.5t37 -3q29 -4 29 -28q0 -34 -33 -34h-2l-31 2l-145 4l-146 -4q-82 0 -82 27.5t31 37.5q51 17 62 36q21 36 22 275v238 q0 59 -14.5 94t-26.5 43.5t-42 13.5t-43 10t-13 16zM190 1205q0 28 36 72t68 44t62.5 -42t30.5 -75t-39 -72.5t-57 -39.5q-41 0 -71 42.5t-30 70.5z" />
<glyph unicode="j" horiz-adv-x="575" d="M47 -281q0 59 45 60q23 0 64 -44t55 -44q27 0 37 68.5t10 260.5v623q0 88 -52 109q-28 12 -65 12t-37 20q0 12 18 18l66 20q48 14 117.5 46.5t75.5 32.5q25 0 25 -47v-23l-5 -96v-663q0 -113 -20.5 -213.5t-85 -184.5t-154.5 -84t-90 56zM238 1210.5q0 28.5 31.5 66.5 t65.5 38t65.5 -36t31.5 -68.5t-36 -70.5t-54 -38q-41 0 -72.5 40t-31.5 68.5z" />
<glyph unicode="k" horiz-adv-x="1116" d="M0 1411.5q0 22.5 100 52.5q14 4 34 10.5t24 7.5t15 5t12 5t10.5 5t13.5 7t16.5 10.5t39 24.5t39.5 17h13q29 0 29 -38q0 -4 -2 -23.5t-5 -57.5t-5 -93q-6 -163 -6 -345l-6 -419v-43q0 -86 10 -85.5t19 6t22.5 20t21.5 20.5q287 229 287 258t-46 47t-46 36.5t24 18.5 l37 -2l301 10q53 0 54 -18q0 -23 -33 -28q-80 -12 -164 -68q-6 -4 -13.5 -10.5t-26.5 -20.5l-44 -33q-29 -23 -100.5 -77t-88 -68.5t-16.5 -30.5t23 -47q186 -227 319 -344q55 -49 111.5 -63.5t81 -14.5t24.5 -18q0 -25 -17.5 -30t-66.5 -5l-213 2q-34 0 -142 122l-89 102 l-90 110q-53 65 -58 73t-22.5 8.5t-39.5 -28.5t-22 -66l3 -34q1 -22 3.5 -89t8.5 -74q18 -23 24 -32q16 -23 85 -35t69 -31q0 -32 -59 -32h-4l-199 12l-150 -8q-49 0 -49 22t51 37q47 18 59.5 53t12.5 136l2 90l2 909q0 154 -96 154l-41 -2q-41 0 -41 22.5z" />
<glyph unicode="l" horiz-adv-x="571" d="M41 1417q0 14 3 20.5t13.5 11.5t23.5 8q59 14 122 43q101 48 133 48q25 0 24 -39q0 -8 -4 -48q-12 -120 -12 -263v-115l-4 -272v-610q0 -43 7 -71t47 -53.5t112 -25.5q10 0 18 -10t8 -21q0 -28 -59 -28h-4l-207 14q-53 0 -101 -8t-63.5 -8t-25 7t-9.5 18t9.5 18.5 t31.5 12.5q60 14 72 48.5t12 93.5l-2 54v151l9 871q0 47 -15.5 84.5t-34 46t-82.5 8.5q-22 0 -22 14z" />
<glyph unicode="m" horiz-adv-x="1693" d="M63 795q0 18 25 27t74 19.5t71.5 19.5t37 17.5t21.5 11.5q16 7 41 7t25 -55l-10 -90q0 -25 12 -25q2 0 13.5 15.5t31 37t47.5 42.5q69 52 165 52t151 -25.5t76.5 -55t36 -55t17.5 -25.5t39 42t102.5 84t140.5 42q150 0 230.5 -88t93.5 -214.5t14 -265.5v-65 q0 -92 10 -133t47 -54q2 0 19 -3l27 -5q32 -6 32 -30q0 -31 -68 -31l-135 8l-147 -8q-49 0 -50 20q0 23 43 39.5t52 34.5q8 23 8 94v33l-2 218l-6 133q0 24 -6.5 43.5t-7.5 29.5t-11 24.5t-12 18.5q-8 16 -33 41q-53 63 -154 63q-47 0 -98 -24.5t-82 -50t-31 -33.5t3 -30 q10 -62 10 -232v-174q0 -94 26.5 -138.5t114.5 -56.5q20 -2 28.5 -13.5t8.5 -19.5q0 -22 -36 -22h-3l-150 10l-186 -10q-45 0 -45 26q0 14 8 21.5t29.5 15.5t29 12.5t17.5 35t10 83.5v16l2 84v124l-2 108l-2 21q0 109 -55 174t-147.5 65t-160 -45t-67.5 -104v-414 q0 -74 26.5 -113t59.5 -44t59.5 -11t26.5 -22t-6 -22.5t-37 -6.5l-172 6l-162 -6q-49 0 -49 31q0 23 37 28q14 2 30.5 17.5t29.5 58.5t14 297l-2 250q0 49 -21.5 69.5t-47.5 19.5h-11q-58 0 -58 30z" />
<glyph unicode="n" horiz-adv-x="1210" d="M63 799q0 21 44.5 27t70 13t67.5 24.5t67.5 29.5t33.5 12h4q18 0 19 -24l-4 -88q0 -53 8 -53.5t16 10.5q29 42 82 73q95 59 193 59q66 0 132 -27q112 -44 164 -151q41 -81 41 -167v-19l3 -110v-209q0 -78 21.5 -108t102.5 -42q41 -6 41 -31q0 -20 -41 -20l-167 10 l-158 -8q-41 0 -41 27q0 19 24 24l27 6q45 14 45 138v276q0 158 -78 239t-176 81t-163.5 -47.5t-79.5 -88t-15 -313.5v-78q0 -102 21.5 -151.5t95.5 -55.5q20 0 52 -7t32 -23q0 -27 -39 -27l-150 8q-53 0 -141 -4l-88 -4q-31 0 -31 18t10.5 22.5t26 6.5t30.5 13 q38 26 42 149t4 162v295q0 66 -23.5 88t-64.5 22h-21q-39 0 -39 23z" />
<glyph unicode="o" horiz-adv-x="1120" d="M80 418q0 186 128 325.5t338 139.5t352 -121t142 -336t-146 -339t-356 -124t-334 134.5t-124 320.5zM242 466.5q0 -192.5 112.5 -317t242.5 -124.5t210 89t80 261t-98.5 312t-274.5 140q-106 0 -189 -84t-83 -276.5z" />
<glyph unicode="p" horiz-adv-x="1136" d="M63 787q0 11 17.5 17.5t71 23t123 50t75.5 33.5q27 0 27 -26l-8 -121q0 -16 4 -16t19 14l40 36q108 91 250 91q182 0 278.5 -120t96.5 -301t-120 -333.5t-321 -152.5q-94 0 -152 19t-81 38.5t-30 19.5t-7 -16v-252q0 -39 29 -86t75 -53t77.5 -8t31.5 -28t-70 -26 q-12 0 -65 4.5t-148 4.5l-129 -7q-45 0 -57 4.5t-12 19.5t19.5 23.5t44 14.5t44 50t19.5 128v41l6 565v45q0 170 -15.5 226.5t-80.5 56.5q-35 0 -43.5 5t-8.5 16zM346 393l2 -102q0 -72 31 -123t79 -76q91 -49 191 -49q133 0 204 97.5t71 249t-87 274t-235 122.5 q-104 0 -186 -65q-43 -33 -56.5 -89.5t-13.5 -238.5z" />
<glyph unicode="q" horiz-adv-x="1144" d="M80 360q0 133 47 237.5t123 164.5q154 123 338 123q106 0 218 -64q25 -15 56 -41q8 0 41 65.5t60 65.5q18 0 18 -25t-5 -64q-13 -100 -13 -347l6 -639q0 -128 53 -164q22 -16 43.5 -22t37 -12.5t15.5 -20.5q0 -25 -37 -25l-73 2h-70q-142 0 -168.5 -5t-32.5 -5 q-49 0 -49 31q0 24 46 30.5t59.5 15.5t18.5 40t5 133l4 189q0 94 -11 94t-36 -25l-56 -58q-32 -32 -96.5 -57.5t-144.5 -25.5q-150 0 -248 82q-149 124 -149 327zM223 433q0 -120 61 -212q106 -162 269 -162q179 0 229 85q35 60 35 141v333q0 82 -91 144.5t-185 62.5 q-96 0 -195 -73q-53 -39 -88 -119t-35 -200z" />
<glyph unicode="r" horiz-adv-x="768" d="M45 778q0 23 27.5 34t102.5 34.5t117.5 43t51.5 19.5q27 0 27 -41l-2 -55q0 -75 5 -81.5t10 -6.5t31.5 41t76 83t97.5 42t99 -34t51 -67.5t-16 -62.5q-27 -49 -53 -49q-16 0 -58.5 24.5t-97.5 24.5t-103.5 -45t-48.5 -82v-213l3 -177l2 -38q0 -43 28.5 -73.5t54 -35 t44.5 -6.5l28 -3q45 -4 45 -27q0 -33 -24 -33l-174 10l-213 -10q-37 0 -41 8t-4 16q0 27 26 35q53 12 64.5 52t11.5 171l-2 330l-2 62q0 23 -6 37q-16 38 -97 38l-22 2q-39 0 -39 33z" />
<glyph unicode="s" horiz-adv-x="804" d="M113 88v178q0 23 9 38t25 15t23.5 -9t13.5 -37.5t13 -41.5q76 -188 213 -188q63 0 120.5 34t57.5 106.5t-47 117.5t-115 70.5t-135.5 53.5t-114.5 82t-47 136q0 115 92 184.5t202.5 69.5t168 -17.5t69 -31.5t11.5 -27l8 -123q0 -35 -8 -47t-23.5 -12t-32.5 29l-40 65 q-21 35 -69 64.5t-109.5 29.5t-100.5 -29.5t-39 -64.5q0 -66 28 -94l26 -27q24 -24 89 -46q217 -75 271.5 -139.5t54.5 -181t-109 -214.5q-74 -63 -202 -64q-89 0 -197 43q-31 13 -36 14t-16 5t-16.5 5t-13.5 5t-11 7t-7 9q-6 9 -6 33z" />
<glyph unicode="t" horiz-adv-x="700" d="M55 786q0 20 19 34q84 59 154 156q34 46 53.5 67.5t37.5 21.5q23 0 23 -47l-8 -117q0 -29 11 -35t73 -6h71q94 0 114 10q35 19 44 19q20 0 20 -19q0 -22 -26 -68q-27 -48 -39 -48q-161 0 -217 14q-39 0 -50 -12.5t-11 -55.5l-9 -381q0 -133 34 -185t143 -52q43 0 95 19.5 t56 19.5q21 0 21 -27q0 -26 -71 -70t-153 -44q-276 0 -276 239v31l8 477q0 20 -8 26.5t-35 6.5l-39 -2q-35 -1 -35 28z" />
<glyph unicode="u" horiz-adv-x="1179" d="M59 807q0 29 40 37t98 8l116 10q35 0 41 -14t6 -88l-10 -361q0 -180 69.5 -254.5t158.5 -74.5q131 0 190 55t59 194l-4 283q0 102 -16 138t-69.5 41t-53.5 28q0 47 180 47l74 10q31 0 40 -10t9 -29.5t-1 -49t-2 -79t-3 -110.5q-4 -124 -4 -275t12 -196t45 -45l53 2 q49 0 50 -27q0 -23 -14.5 -29t-56.5 -6t-124 -11t-88 -11q-14 0 -23.5 52t-12.5 52t-40 -32.5t-105.5 -65.5t-150.5 -33q-329 0 -329 354l2 371q0 41 -21.5 65.5t-40.5 24.5h-37q-37 0 -37 29z" />
<glyph unicode="v" horiz-adv-x="1071" d="M41 852q0 22 36 22h3l145 -8l119 -2l80 6q37 0 37 -22q0 -35 -49 -35q-86 0 -86 -57q0 -33 50 -144l91 -194q12 -25 41 -92q56 -131 70 -131q20 0 124.5 247.5t104.5 291.5t-19.5 61.5t-43.5 14.5q-10 -1 -19 -1q-45 0 -45 35q0 26 59 26h4l138 -2l94 2q35 0 46 -6 t11 -20t-10 -20l-30 -20q-21 -13 -56 -60.5t-131 -251.5l-176 -363q-80 -158 -111 -158q-20 0 -32.5 21.5t-56.5 126.5l-185 422q-51 113 -94.5 181.5t-65 82.5t-32.5 23.5t-11 23.5z" />
<glyph unicode="w" horiz-adv-x="1531" d="M41 852q0 22 36 22h3l145 -8l101 2q61 0 78.5 -3t17.5 -19.5t-22 -21.5q-68 -15 -68 -81.5t114 -324.5q14 -29 39 -89.5t39.5 -88t22.5 -27.5q16 0 111 197l42 80q37 67 37 98v14q0 14 -19.5 61.5t-41 79t-46 52t-37.5 25.5q-32 12 -32 30t31 18l248 -4l63 2q45 0 45 -28 q0 -14 -6 -17q-11 -4 -24 -4q-61 -4 -62 -57q0 -76 121 -342q16 -33 39 -90q45 -117 57 -117q20 0 107.5 224t87.5 277.5t-17.5 73t-38.5 22.5q-57 8 -57 40q0 16 43 16h236q39 0 49 -4t10 -22.5t-34 -31.5t-54 -42t-36.5 -62.5t-37 -84t-81.5 -185.5l-142 -309l-32 -65 q-40 -85 -62 -85q-35 0 -131.5 265.5t-112.5 265.5q-6 0 -131 -262t-164 -262q-16 0 -30.5 28.5t-65.5 160.5l-148 374l-29 83q-18 50 -27 70q-27 57 -95 115q-5 5 -17 11.5t-16 9.5q-6 6 -6 20z" />
<glyph unicode="x" horiz-adv-x="1122" d="M59 29q0 10 6.5 14t33 13.5t58.5 29.5q71 46 146 121l63 65q25 25 63 68t46 53t8 19.5t-23 39.5l-151 185q-47 61 -94 103t-74.5 47t-52.5 22.5t-25 39t27 21.5h2l160 -10l166 8q33 0 43 -6t10 -19t-34 -25.5t-34 -35.5q0 -16 37 -66l70 -97q70 -101 82 -101q6 0 20 17 q142 182 149 196t7 33q0 31 -47 49t-47 31q0 24 49 24h4l129 -2l141 4q14 0 26.5 -8t12.5 -19t-11 -18.5t-31 -12.5q-55 -14 -132 -91q-235 -235 -235 -258q0 -6 21 -30l165 -193q7 -13 49 -61l28 -31q19 -21 34 -32l34 -27q37 -29 63.5 -36.5t30.5 -9.5q11 -5 11 -19.5 t-12.5 -20t-57.5 -5.5l-121 4l-120 -4h-23q-70 0 -70 20q0 10 36 22.5t36 38.5t-28.5 66.5t-78 100t-67.5 86t-22.5 26.5t-24.5 -20l-112 -134q-46 -54 -46 -89t15.5 -49.5t32.5 -15.5q49 -3 49 -34q0 -8 -3 -11q-9 -7 -81 -7l-107 6l-108 -8q-91 0 -91 33z" />
<glyph unicode="y" horiz-adv-x="1019" d="M41 842q0 27 41 26l219 -4l117 4q14 0 25.5 -7t11.5 -15q0 -37 -49 -37h-31q-33 0 -33 -51t87 -246l77 -172q56 -127 67.5 -127t95 235.5t83.5 280.5t-19.5 63.5t-44.5 17.5h-9q-54 0 -54 36q0 24 36 24h3l147 -2l127 2q43 0 43 -26q0 -20 -36 -29.5t-48 -26.5 q-33 -47 -111 -258l-182 -485q-23 -59 -45 -121l-88 -240q-27 -73 -47 -73h-7l-87 -2q-39 0 -39 26q0 6 47 63.5t93 141.5t46 148.5t-116.5 318.5t-202.5 416q-23 41 -46.5 63.5t-37.5 24.5q-33 4 -33 31z" />
<glyph unicode="z" horiz-adv-x="774" d="M82 31q0 33 15.5 52t28.5 38.5t26 36.5q374 540 374 571q0 10 -47 10l-250 -14q-61 -3 -102 -88q-14 -29 -25 -29q-16 0 -16 30t5 68.5t13.5 80.5t8.5 49q4 36 39 36h2l219 -6l301 6q25 0 24 -20q0 -23 -27.5 -55.5t-31.5 -38.5l-349 -512q-48 -72 -48 -96q0 -18 100 -19 l100 2q109 0 146 29q32 26 43.5 57t15.5 39q14 29 35 29q33 0 33 -29q0 -12 -27.5 -75.5t-35.5 -90.5l-12 -44q-13 -44 -38 -44h-233l-150 -2h-35q-34 0 -68 -1h-3q-31 0 -31 30z" />
<glyph unicode="{" horiz-adv-x="559" d="M86 549q0 31 38 52.5t38 55.5l-8 846q0 37 36 37l127 -16q41 0 82 6t67 6t26 -20q0 -49 -75 -81t-130 -32q-14 0 -15 -19l-6 -862l6 -737q0 -11 62.5 -25t89.5 -28q70 -39 70 -84q0 -18 -17 -19q-2 0 -23 5q-50 14 -118.5 14t-108 -14.5t-51.5 -14.5q-25 0 -24 25l6 770 q0 45 -36 74.5t-36 60.5z" />
<glyph unicode="|" horiz-adv-x="428" d="M160 -178l12 1345v168l-2 176q0 27 11.5 38.5t39 11.5t36.5 -11.5t9 -40.5l-2 -47l4 -317l-10 -1125q0 -199 2 -301l2 -53v-16q0 -78 -35 -78q-45 0 -56 20.5t-11 104.5v125z" />
<glyph unicode="}" horiz-adv-x="559" d="M66 -352q0 45 69 84q27 14 67 23q85 19 85 30l6 737l-6 862q0 18 -15 19q-55 0 -129.5 31.5t-74.5 81.5q0 20 25 20t66.5 -6t82.5 -6l127 16q37 0 37 -37l-9 -846q0 -35 38 -56t38 -52t-36 -60.5t-36 -74.5l7 -770q0 -25 -25 -25q-14 0 -53 14.5t-88.5 14.5t-83 -4 t-54 -9.5t-22.5 -5.5q-16 1 -16 19z" />
<glyph unicode="~" horiz-adv-x="778" d="M59 352q0 8 29 52.5t82 91.5t102 47t122 -46t118 -46t81 24.5t56.5 50t28.5 25.5q41 0 41 -31q0 -10 -31 -52t-90 -87t-117.5 -45t-125 47t-107.5 47t-74 -27.5t-50.5 -55.5t-23.5 -28q-41 0 -41 33z" />
<glyph unicode="&#xa2;" horiz-adv-x="925" d="M80 391q0 156 85 284q95 143 265 188q19 5 25 5t12 5.5t6 12.5v99q0 20 41 20.5t41 -18.5v-94q0 -11 5 -12.5t10 -2.5t16.5 -1t23.5 -1q37 -5 79 -11.5t71 -22.5t34 -37t5 -100.5t-23 -79.5q-19 0 -34 25q-29 51 -138 106q-29 14 -40 14t-11 -41l-4 -637q0 -14 6 -21.5 t53.5 -7.5t108.5 27t95 53.5t42 26.5q23 0 23 -20q0 -14 -30 -51.5t-104.5 -81.5t-169.5 -56q-22 -3 -24 -8.5t-2 -20.5v-118q0 -23 -39 -23t-39 19v131q0 15 -5 17.5t-14.5 2.5t-21.5 1q-29 2 -82 20q-125 43 -195.5 148t-70.5 261zM233 464q0 -75 21.5 -138.5t51.5 -104.5 t62 -71q62 -58 91 -58q10 0 10 31q0 260 2 647q0 20 -5 24.5t-24.5 4.5t-42 -7.5t-52.5 -31t-54.5 -59t-42 -99t-17.5 -138.5z" />
<glyph unicode="&#xa3;" horiz-adv-x="1140" d="M41 88q0 45 34 81t87 36t91 -10.5t62.5 -21.5t28.5 -11q10 8 25.5 54t15.5 89q0 98 -98 332q-9 16 -11 21.5t-5 11.5t-5 7q-10 5 -17 5h-13l-164 -2q-29 0 -29 44t27 44h118q35 0 35 3t-15 47q-48 141 -48 251q0 201 123 302.5t274 101.5t254.5 -61.5t102.5 -151.5 q0 -33 -29 -68t-49 -35t-31.5 19.5t-26 59.5t-37 74.5t-81 61.5t-140 27t-150.5 -58.5t-69 -182.5t98 -347q10 -27 17.5 -34t21.5 -7h318q31 0 37 -8t6 -31.5t-2 -30.5q-5 -18 -45 -18h-250q-45 0 -45 -5t13 -45q42 -129 42 -188t-4 -90.5t-12 -57.5q-18 -64 -48 -124 l-12 -24l-6 -11q127 -35 254 -35t199.5 33t103.5 71t54.5 70.5t31.5 32.5q27 0 27 -27.5t-9.5 -62.5t-34 -80t-58 -84t-91 -64.5t-127.5 -25.5q-168 0 -407 90q-2 0 -65.5 -39t-132 -39t-101.5 33t-33 78zM119 90q0 -20 19.5 -37.5t47 -17.5t54.5 14q42 21 59 47 q-6 8 -47 20.5t-76 12.5q-57 0 -57 -39z" />
<glyph unicode="&#xa5;" horiz-adv-x="1458" d="M41 1407q0 25 23.5 31t103.5 6l119 -4l174 2q102 0 102 -24t-43 -39t-43 -34q0 -43 40 -105l71 -107q66 -102 138.5 -202t82.5 -100h16q14 0 33 28l54 86q29 49 72 112q60 93 87 138l19 37q20 37 20 70t-23.5 53.5t-52.5 21.5q-76 3 -76 42q0 25 58 25l84 -2l217 -2 q100 0 100 -31q0 -8 -12 -14l-35 -17q-22 -10 -41 -24q-94 -76 -276 -361l-64 -96q-10 -14 -21 -29q-20 -24 -20 -31t230 -8q29 0 28.5 -44t-28.5 -44l-281 -2q-16 0 -25 -11q-24 -27 -24 -208q0 -16 3 -21t15 -5l29 2h256q33 0 40 -9.5t7 -31.5t-2 -31q-5 -21 -49 -21 l-264 -2q-23 0 -29 -4t-6 -22v-15l2 -88v-49q0 -68 23.5 -107.5t44 -48t40.5 -8.5l41 -8q31 0 31 -22q0 -29 -37 -29l-198 2l-244 -10q-51 0 -51 24q0 18 9 24.5t34.5 8.5t38.5 6q86 27 86 127l4 193q0 20 -6.5 24t-28.5 4h-129l-154 3q-29 0 -28.5 44t26.5 44h277 q29 0 37 6t8 28l-2 70q0 53 -14.5 95t-41.5 44l-30 2h-205q-33 0 -41 10.5t-8 31.5t2 29q5 19 51 19q186 0 186 4.5t-28 49.5l-201 299q-61 90 -110.5 137t-76 55t-70.5 8t-44 25z" />
<glyph unicode="&#xa9;" horiz-adv-x="1630" d="M90 683q0 302 212 518t516 216t517 -216t213 -514t-211 -514t-514 -216t-518 212t-215 514zM176 684q0 -266 190.5 -453.5t452.5 -187.5t452.5 186.5t190.5 452.5t-186 456.5t-456.5 190.5t-457 -189.5t-186.5 -455.5zM336 659q0 209 128 347.5t357 138.5q78 0 157 -22.5 t125 -45t49 -22.5t9 6t15.5 6t15.5 -4t9 -18.5t4 -30.5q5 -74 11.5 -110t6.5 -40q0 -31 -27 -30q-16 0 -29 22q-121 219 -346 219q-154 0 -252 -94t-98 -248q0 -144 81 -279q42 -69 128 -112t203 -43q164 0 278 162q12 18 21.5 40.5t15.5 30t25 7.5q14 0 14 -17 q0 -51 -25 -170q-4 -20 -26 -28l-56 -28q-115 -57 -176 -65t-104 -8q-129 0 -226.5 35t-150.5 83t-86 113q-51 99 -51 205z" />
<glyph unicode="&#xad;" d="M90 297v22q0 59 19.5 76t113 44.5t177 57t113.5 41t48 11.5q45 0 45 -70v-12q0 -45 -21 -63q-14 -13 -45 -21q-70 -18 -130 -37.5t-116 -39.5l-82 -30q-57 -22 -89.5 -22t-32.5 43z" />
<glyph unicode="&#xae;" horiz-adv-x="978" d="M59 1120q0 178 125 304t303 126t305.5 -126t127.5 -304t-127 -304t-305.5 -126t-303.5 126t-125 304zM121 1120.5q0 -149.5 108.5 -257t258 -107.5t259 107.5t109.5 257t-109.5 258t-259 108.5t-258 -108.5t-108.5 -258zM252 1350q0 16 24 16h48l155 4q76 0 127 -31.5 t51 -99.5q0 -39 -23.5 -62.5t-46 -31.5t-23 -10.5t7.5 -10.5l20 -22q12 -14 29.5 -46t64.5 -95q25 -31 39 -30t16 1q10 0 11 -8q0 -10 -12.5 -22.5t-40.5 -12.5t-56.5 16t-85.5 113.5t-74 101.5h-51q-14 0 -17 -6t-3 -55.5t6 -85.5q10 -39 47 -46t37 -18.5t-15 -11.5l-104 4 q-23 0 -57 -2l-35 -2q-14 0 -15 14q0 8 26 14.5t29 34t3 74.5v49l2 197q0 53 -62 53q-22 1 -22 17zM412 1221q0 -41 5 -55.5t23 -14.5l29 -2q61 0 85 18.5t24 59.5t-32 74.5t-100 33.5q-23 0 -28.5 -8t-5.5 -39v-67z" />
<glyph unicode="&#xb4;" horiz-adv-x="899" d="M371 1006q0 10 14 32q68 104 139 279q16 39 41 39t67 -13.5t42 -39.5q0 -47 -199 -256q-59 -63 -81.5 -63.5t-22.5 22.5z" />
<glyph unicode="&#x2000;" horiz-adv-x="790" />
<glyph unicode="&#x2001;" horiz-adv-x="1581" />
<glyph unicode="&#x2002;" horiz-adv-x="790" />
<glyph unicode="&#x2003;" horiz-adv-x="1581" />
<glyph unicode="&#x2004;" horiz-adv-x="527" />
<glyph unicode="&#x2005;" horiz-adv-x="395" />
<glyph unicode="&#x2006;" horiz-adv-x="263" />
<glyph unicode="&#x2007;" horiz-adv-x="263" />
<glyph unicode="&#x2008;" horiz-adv-x="197" />
<glyph unicode="&#x2009;" horiz-adv-x="316" />
<glyph unicode="&#x200a;" horiz-adv-x="87" />
<glyph unicode="&#x2010;" d="M90 297v22q0 59 19.5 76t113 44.5t177 57t113.5 41t48 11.5q45 0 45 -70v-12q0 -45 -21 -63q-14 -13 -45 -21q-70 -18 -130 -37.5t-116 -39.5l-82 -30q-57 -22 -89.5 -22t-32.5 43z" />
<glyph unicode="&#x2011;" d="M90 297v22q0 59 19.5 76t113 44.5t177 57t113.5 41t48 11.5q45 0 45 -70v-12q0 -45 -21 -63q-14 -13 -45 -21q-70 -18 -130 -37.5t-116 -39.5l-82 -30q-57 -22 -89.5 -22t-32.5 43z" />
<glyph unicode="&#x2012;" d="M90 297v22q0 59 19.5 76t113 44.5t177 57t113.5 41t48 11.5q45 0 45 -70v-12q0 -45 -21 -63q-14 -13 -45 -21q-70 -18 -130 -37.5t-116 -39.5l-82 -30q-57 -22 -89.5 -22t-32.5 43z" />
<glyph unicode="&#x2013;" horiz-adv-x="1024" d="M0 433q0 38 14.5 46t55.5 8h911q25 0 34 -10t9 -54t-43 -44h-903q-57 0 -67.5 8t-10.5 46z" />
<glyph unicode="&#x2014;" horiz-adv-x="2048" d="M0 433q0 38 14.5 46t55.5 8h1935q25 0 34 -10t9 -54t-43 -44h-1927q-57 0 -67.5 8t-10.5 46z" />
<glyph unicode="&#x2018;" horiz-adv-x="540" d="M150 1109q0 81 28.5 154.5t68.5 113.5q83 83 126 83q10 0 18 -9t8 -18t-17 -24.5t-40 -32t-40 -55.5t-17 -93t22.5 -92t48.5 -52q70 -41 70 -78q0 -12 -29.5 -42t-46.5 -52q-32 -38 -53.5 -38t-51.5 20.5t-62.5 77t-32.5 137.5z" />
<glyph unicode="&#x2019;" horiz-adv-x="540" d="M115 1322.5q0 18.5 55 74.5q4 4 22 25q30 38 60 38q19 0 47.5 -25.5t46.5 -50.5q43 -56 43 -147.5t-28.5 -165.5t-67.5 -113q-82 -84 -125 -84q-10 0 -18.5 9.5t-8.5 18.5t17.5 24.5t40 33t40 56.5t17.5 93t-22.5 92t-48 52.5t-48 32.5t-22.5 36.5z" />
<glyph unicode="&#x201c;" horiz-adv-x="940" d="M150 1109q0 81 28.5 154.5t68.5 113.5q83 83 126 83q10 0 18 -9t8 -18t-17 -24.5t-40 -32t-40 -55.5t-17 -93t22.5 -92t48.5 -52q70 -41 70 -78q0 -12 -29.5 -42t-46.5 -52q-32 -38 -53.5 -38t-51.5 20.5t-62.5 77t-32.5 137.5zM551 1123.5q0 66.5 28.5 140t67.5 113.5 q81 83 125 83q10 0 18 -9q18 -18 -10 -43l-38 -32q-20 -16 -39 -55t-19 -93t22.5 -92t47.5 -52q71 -41 71 -78q0 -12 -29.5 -42t-47.5 -52q-31 -38 -60 -38q-18 0 -47 26t-47.5 50.5t-30.5 65.5t-12 107.5z" />
<glyph unicode="&#x201d;" horiz-adv-x="940" d="M115 1322.5q0 18.5 55 74.5q4 4 22 25q30 38 60 38q19 0 47.5 -25.5t46.5 -50.5q43 -56 43 -147.5t-28.5 -165.5t-67.5 -113q-82 -84 -125 -84q-10 0 -18.5 9.5t-8.5 18.5t17.5 24.5t40 33t40 56.5t17.5 93t-22.5 92t-48 52.5t-48 32.5t-22.5 36.5zM514 1322.5 q0 18.5 55 74.5q4 4 21 25q31 38 53 38t52 -20.5t63 -76.5t33 -137t-29 -155t-69 -113q-85 -84 -126 -84q-10 0 -18 10q-16 18 11 42l38 34q20 18 38.5 56.5t18.5 92.5t-22.5 92t-48 52.5t-48 32.5t-22.5 36.5z" />
<glyph unicode="&#x2022;" horiz-adv-x="858" d="M121 678q0 127 90 217t217 90t218 -90t91 -217t-90 -218t-217 -91t-218 91t-91 218z" />
<glyph unicode="&#x2026;" horiz-adv-x="1548" d="M111 112.5q0 24.5 63 80.5q8 8 23.5 28.5t31 31.5t31.5 11t84 -80q6 -6 24 -22q38 -34 38 -46q0 -18 -42 -52l-30 -25q-8 -8 -24 -29q-32 -43 -52 -43t-49 36t-35 40q-63 45 -63 69.5zM627 112.5q0 24.5 63 80.5q8 8 23.5 28.5t31 31.5t32 11t83.5 -80q6 -6 24 -22 q38 -34 38 -46q0 -18 -42 -52l-30 -25q-8 -8 -24 -29q-32 -43 -52 -43t-49 36t-35 40q-63 45 -63 69.5zM1143 112.5q0 24.5 63 80.5q8 8 23.5 28.5t31 31.5t32 11t83.5 -80q6 -6 24 -22q38 -34 38 -46q0 -18 -42 -52l-30 -25q-8 -8 -24 -29q-32 -43 -52 -43t-49 36t-35 40 q-63 45 -63 69.5z" />
<glyph unicode="&#x202f;" horiz-adv-x="316" />
<glyph unicode="&#x205f;" horiz-adv-x="395" />
<glyph unicode="&#x20ac;" horiz-adv-x="1257" d="M41 596l39 96h135q41 143 139 238q165 160 367 160q119 0 211 -37t184 -123l-45 -103q-44 74 -146 120t-209.5 46t-224 -71.5t-174.5 -229.5h699l-39 -96h-680l-2 -41l2 -39h645l-41 -98h-584q49 -147 170 -224t240 -77q149 0 248 71q52 38 96 82h6v-125 q-154 -125 -344 -125q-145 0 -289 84q-73 43 -134.5 124t-94.5 190h-168l39 98h113v80h-158z" />
<glyph unicode="&#x2122;" horiz-adv-x="3321" d="M41 1188q0 82 10 148.5t11 76.5t2.5 13.5t2.5 10.5t3 10t5 8t7 7t10 4q12 4 39 4t167 -8t550 -8t500 12q23 0 30.5 -12t7.5 -22l13 -166q0 -51 -6.5 -64.5t-24.5 -13.5t-25 24q-16 59 -28 81q-30 55 -178 55h-267q-49 0 -60 -19.5t-11 -111.5v-101l-6 -749l-2 -134 q0 -88 27.5 -114.5t60 -39.5t55.5 -15q57 -7 57 -37q0 -23 -10 -29t-39 -6l-227 16l-209 -14q-76 0 -76 33q0 20 12.5 27t48 12.5t46.5 7.5q70 16 77 82q20 180 21 774l-2 366q0 39 -22.5 48.5t-149.5 9.5t-200 -8.5t-85 -15.5t-29.5 -29.5t-29 -52t-14.5 -48.5 q-7 -47 -40 -47q-22 0 -22 35zM1480 1423q0 31 37 31l108 -8l154 4q39 0 49 -29l383 -826l77 -159q77 -155 89 -155q20 0 40 51q11 27 28 61l344 711l90 196l21 50q11 26 14.5 35.5t5.5 13.5t7 18.5t10 19.5q17 17 61 17l176 -4q35 0 34 -27q0 -20 -13 -29.5t-59 -15.5 t-66.5 -51t-20.5 -246.5t12 -426t12 -281.5q0 -205 33 -261.5t137 -56.5q14 0 25.5 -10t11.5 -18q0 -33 -23 -33h-22l-209 8l-213 -10q-37 0 -37 28q0 32 55 37q21 2 44.5 25.5t32.5 68t9 122.5q1 150 -10 349l-8 164q-4 76 -7 125l-3 50q0 88 -18 88q-7 0 -12 -6.5 t-9 -10.5t-8 -13t-8 -15l-11 -18q-6 -11 -10 -20l-11 -22q-7 -14 -11 -24l-389 -791q-38 -78 -46 -91t-23 -13t-27.5 17t-37 76.5t-221 459.5t-205 411.5t-14.5 11.5q-16 0 -16 -81l-19 -541v-92q0 -94 16.5 -140.5t51.5 -67t68 -23.5q51 -5 51 -26.5t-6.5 -28.5t-24.5 -7 l-213 8l-168 -6q-43 0 -43 33q0 26 60 29q24 1 52.5 33t41 85t27 364.5t14.5 488.5t-40 255t-173 109q-27 5 -27 30z" />
<glyph unicode="&#xe000;" horiz-adv-x="870" d="M0 0v870h870v-870h-870z" />
<glyph unicode="&#xfb01;" horiz-adv-x="1287" d="M59 788q0 37 17.5 49.5t68.5 12.5h43q25 0 31 11t6 36q0 150 49.5 275.5t121.5 200.5q152 157 280 157q47 0 76.5 -15.5t29.5 -32.5t-7 -45l-9 -36q-11 -46 -32 -50q-5 -1 -12 -1t-18 13q-32 40 -109.5 40t-122 -43t-66.5 -116q-44 -141 -44 -306v-51q0 -39 25 -39 q181 0 221 28q13 9 21 9t8 -22t-29 -72q-12 -18 -51 -19l-160 -2q-33 0 -32 -20v-119l10 -406q0 -110 29 -144q35 -42 100 -42q35 0 35 -31q0 -20 -23 -20l-205 10l-151 -10q-31 0 -31 28q0 10 25 20q75 31 75 122q0 14 -2 80q-6 200 -6 497q0 23 -7 28t-28 5l-82 -6 q-45 -1 -45 26zM780 779q0 11 5 17.5t20.5 13.5t31.5 12q50 16 109 40l42 18q19 9 25 12q14 7 35 7q31 0 31 -39l-13 -98v-561q0 -61 19.5 -96t41 -43.5t50.5 -10.5t37 -3q29 -4 29 -28q0 -34 -33 -34h-2l-31 2l-145 4l-146 -4q-82 0 -82 27.5t31 37.5q51 17 62 36 q21 36 22 275v238q0 59 -14.5 94t-26.5 43.5t-42 13.5t-43 10t-13 16zM896 1205q0 28 36 72t68 44t62.5 -42t30.5 -75t-39 -72.5t-57 -39.5q-41 0 -71 42.5t-30 70.5z" />
<glyph unicode="&#xfb02;" horiz-adv-x="1277" d="M59 788q0 37 17.5 49.5t68.5 12.5h43q25 0 31 11t6 36q0 150 49.5 275.5t121.5 200.5q152 157 280 157q47 0 76.5 -15.5t29.5 -32.5t-7 -45l-9 -36q-11 -46 -32 -50q-5 -1 -12 -1t-18 13q-32 40 -109.5 40t-122 -43t-66.5 -116q-44 -141 -44 -306v-51q0 -39 25 -39 q181 0 221 28q13 9 21 9t8 -22t-29 -72q-12 -18 -51 -19l-160 -2q-33 0 -32 -20v-119l10 -406q0 -110 29 -144q35 -42 100 -42q35 0 35 -31q0 -20 -23 -20l-205 10l-151 -10q-31 0 -31 28q0 10 25 20q75 31 75 122q0 14 -2 80q-6 200 -6 497q0 23 -7 28t-28 5l-82 -6 q-45 -1 -45 26zM747 1417q0 14 3 20.5t13.5 11.5t23.5 8q59 14 122 43q101 48 133 48q25 0 24 -39q0 -8 -4 -48q-12 -120 -12 -263v-115l-4 -272v-610q0 -43 7 -71t47 -53.5t112 -25.5q10 0 18 -10t8 -21q0 -28 -59 -28h-4l-207 14q-53 0 -101 -8t-63.5 -8t-25 7t-9.5 18 t9.5 18.5t31.5 12.5q60 14 72 48.5t12 93.5l-2 54v151l9 871q0 47 -15.5 84.5t-34 46t-82.5 8.5q-22 0 -22 14z" />
<glyph unicode="&#xfb03;" horiz-adv-x="1993" d="M59 788q0 37 17.5 49.5t68.5 12.5h43q25 0 31 11t6 36q0 150 49.5 275.5t121.5 200.5q152 157 280 157q47 0 76.5 -15.5t29.5 -32.5t-7 -45l-9 -36q-11 -46 -32 -50q-5 -1 -12 -1t-18 13q-32 40 -109.5 40t-122 -43t-66.5 -116q-44 -141 -44 -306v-51q0 -39 25 -39 q181 0 221 28q13 9 21 9t8 -22t-29 -72q-12 -18 -51 -19l-160 -2q-33 0 -32 -20v-119l10 -406q0 -110 29 -144q35 -42 100 -42q35 0 35 -31q0 -20 -23 -20l-205 10l-151 -10q-31 0 -31 28q0 10 25 20q75 31 75 122q0 14 -2 80q-6 200 -6 497q0 23 -7 28t-28 5l-82 -6 q-45 -1 -45 26zM765 788q0 37 17.5 49.5t68.5 12.5h43q25 0 31 11t6 36q0 150 49.5 275.5t121.5 200.5q152 157 280 157q47 0 76.5 -15.5t29.5 -32.5t-7 -45l-9 -36q-11 -46 -32 -50q-5 -1 -12 -1t-18 13q-32 40 -109.5 40t-122 -43t-66.5 -116q-44 -141 -44 -306v-51 q0 -39 25 -39q181 0 221 28q13 9 21 9t8 -22t-29 -72q-12 -18 -51 -19l-160 -2q-33 0 -32 -20v-119l10 -406q0 -110 29 -144q35 -42 100 -42q35 0 35 -31q0 -20 -23 -20l-205 10l-151 -10q-31 0 -31 28q0 10 25 20q75 31 75 122q0 14 -2 80q-6 200 -6 497q0 23 -7 28t-28 5 l-82 -6q-45 -1 -45 26zM1486 779q0 11 5 17.5t20.5 13.5t31.5 12q50 16 109 40l42 18q19 9 25 12q14 7 35 7q31 0 31 -39l-13 -98v-561q0 -61 19.5 -96t41 -43.5t50.5 -10.5t37 -3q29 -4 29 -28q0 -34 -33 -34h-2l-31 2l-145 4l-146 -4q-82 0 -82 27.5t31 37.5q51 17 62 36 q21 36 22 275v238q0 59 -14.5 94t-26.5 43.5t-42 13.5t-43 10t-13 16zM1602 1205q0 28 36 72t68 44t62.5 -42t30.5 -75t-39 -72.5t-57 -39.5q-41 0 -71 42.5t-30 70.5z" />
<glyph unicode="&#xfb04;" horiz-adv-x="1983" d="M59 788q0 37 17.5 49.5t68.5 12.5h43q25 0 31 11t6 36q0 150 49.5 275.5t121.5 200.5q152 157 280 157q47 0 76.5 -15.5t29.5 -32.5t-7 -45l-9 -36q-11 -46 -32 -50q-5 -1 -12 -1t-18 13q-32 40 -109.5 40t-122 -43t-66.5 -116q-44 -141 -44 -306v-51q0 -39 25 -39 q181 0 221 28q13 9 21 9t8 -22t-29 -72q-12 -18 -51 -19l-160 -2q-33 0 -32 -20v-119l10 -406q0 -110 29 -144q35 -42 100 -42q35 0 35 -31q0 -20 -23 -20l-205 10l-151 -10q-31 0 -31 28q0 10 25 20q75 31 75 122q0 14 -2 80q-6 200 -6 497q0 23 -7 28t-28 5l-82 -6 q-45 -1 -45 26zM765 788q0 37 17.5 49.5t68.5 12.5h43q25 0 31 11t6 36q0 150 49.5 275.5t121.5 200.5q152 157 280 157q47 0 76.5 -15.5t29.5 -32.5t-7 -45l-9 -36q-11 -46 -32 -50q-5 -1 -12 -1t-18 13q-32 40 -109.5 40t-122 -43t-66.5 -116q-44 -141 -44 -306v-51 q0 -39 25 -39q181 0 221 28q13 9 21 9t8 -22t-29 -72q-12 -18 -51 -19l-160 -2q-33 0 -32 -20v-119l10 -406q0 -110 29 -144q35 -42 100 -42q35 0 35 -31q0 -20 -23 -20l-205 10l-151 -10q-31 0 -31 28q0 10 25 20q75 31 75 122q0 14 -2 80q-6 200 -6 497q0 23 -7 28t-28 5 l-82 -6q-45 -1 -45 26zM1453 1417q0 14 3 20.5t13.5 11.5t23.5 8q59 14 122 43q101 48 133 48q25 0 24 -39q0 -8 -4 -48q-12 -120 -12 -263v-115l-4 -272v-610q0 -43 7 -71t47 -53.5t112 -25.5q10 0 18 -10t8 -21q0 -28 -59 -28h-4l-207 14q-53 0 -101 -8t-63.5 -8t-25 7 t-9.5 18t9.5 18.5t31.5 12.5q60 14 72 48.5t12 93.5l-2 54v151l9 871q0 47 -15.5 84.5t-34 46t-82.5 8.5q-22 0 -22 14z" />
</font>
</defs>
</svg>
